%TF.GenerationSoftware,KiCad,Pcbnew,(6.0.8)*%
%TF.CreationDate,2022-10-04T18:24:03+02:00*%
%TF.ProjectId,board,626f6172-642e-46b6-9963-61645f706362,v1.0.0*%
%TF.SameCoordinates,Original*%
%TF.FileFunction,Legend,Bot*%
%TF.FilePolarity,Positive*%
%FSLAX46Y46*%
G04 Gerber Fmt 4.6, Leading zero omitted, Abs format (unit mm)*
G04 Created by KiCad (PCBNEW (6.0.8)) date 2022-10-04 18:24:03*
%MOMM*%
%LPD*%
G01*
G04 APERTURE LIST*
%ADD10C,0.100000*%
%ADD11R,1.752600X1.752600*%
%ADD12C,1.752600*%
G04 APERTURE END LIST*
D10*
%TO.C,D1*%
X18250000Y-4700000D02*
X18750000Y-4700000D01*
X18250000Y-5100000D02*
X17650000Y-4700000D01*
X18250000Y-4300000D02*
X18250000Y-5100000D01*
X17650000Y-4700000D02*
X18250000Y-4300000D01*
X17650000Y-4700000D02*
X17650000Y-5250000D01*
X17650000Y-4700000D02*
X17650000Y-4150000D01*
X17250000Y-4700000D02*
X17650000Y-4700000D01*
%TO.C,D2*%
X18250000Y12980000D02*
X18750000Y12980000D01*
X18250000Y12580000D02*
X17650000Y12980000D01*
X18250000Y13380000D02*
X18250000Y12580000D01*
X17650000Y12980000D02*
X18250000Y13380000D01*
X17650000Y12980000D02*
X17650000Y12430000D01*
X17650000Y12980000D02*
X17650000Y13530000D01*
X17250000Y12980000D02*
X17650000Y12980000D01*
%TO.C,D3*%
X18250000Y30660000D02*
X18750000Y30660000D01*
X18250000Y30260000D02*
X17650000Y30660000D01*
X18250000Y31060000D02*
X18250000Y30260000D01*
X17650000Y30660000D02*
X18250000Y31060000D01*
X17650000Y30660000D02*
X17650000Y30110000D01*
X17650000Y30660000D02*
X17650000Y31210000D01*
X17250000Y30660000D02*
X17650000Y30660000D01*
%TO.C,D4*%
X18250000Y48340000D02*
X18750000Y48340000D01*
X18250000Y47940000D02*
X17650000Y48340000D01*
X18250000Y48740000D02*
X18250000Y47940000D01*
X17650000Y48340000D02*
X18250000Y48740000D01*
X17650000Y48340000D02*
X17650000Y47790000D01*
X17650000Y48340000D02*
X17650000Y48890000D01*
X17250000Y48340000D02*
X17650000Y48340000D01*
%TO.C,D5*%
X36970000Y-4700000D02*
X37470000Y-4700000D01*
X36970000Y-5100000D02*
X36370000Y-4700000D01*
X36970000Y-4300000D02*
X36970000Y-5100000D01*
X36370000Y-4700000D02*
X36970000Y-4300000D01*
X36370000Y-4700000D02*
X36370000Y-5250000D01*
X36370000Y-4700000D02*
X36370000Y-4150000D01*
X35970000Y-4700000D02*
X36370000Y-4700000D01*
%TO.C,D6*%
X36970000Y12980000D02*
X37470000Y12980000D01*
X36970000Y12580000D02*
X36370000Y12980000D01*
X36970000Y13380000D02*
X36970000Y12580000D01*
X36370000Y12980000D02*
X36970000Y13380000D01*
X36370000Y12980000D02*
X36370000Y12430000D01*
X36370000Y12980000D02*
X36370000Y13530000D01*
X35970000Y12980000D02*
X36370000Y12980000D01*
%TO.C,D7*%
X36970000Y30660000D02*
X37470000Y30660000D01*
X36970000Y30260000D02*
X36370000Y30660000D01*
X36970000Y31060000D02*
X36970000Y30260000D01*
X36370000Y30660000D02*
X36970000Y31060000D01*
X36370000Y30660000D02*
X36370000Y30110000D01*
X36370000Y30660000D02*
X36370000Y31210000D01*
X35970000Y30660000D02*
X36370000Y30660000D01*
%TO.C,D8*%
X36970000Y48340000D02*
X37470000Y48340000D01*
X36970000Y47940000D02*
X36370000Y48340000D01*
X36970000Y48740000D02*
X36970000Y47940000D01*
X36370000Y48340000D02*
X36970000Y48740000D01*
X36370000Y48340000D02*
X36370000Y47790000D01*
X36370000Y48340000D02*
X36370000Y48890000D01*
X35970000Y48340000D02*
X36370000Y48340000D01*
%TO.C,D9*%
X55690000Y12300000D02*
X56190000Y12300000D01*
X55690000Y11900000D02*
X55090000Y12300000D01*
X55690000Y12700000D02*
X55690000Y11900000D01*
X55090000Y12300000D02*
X55690000Y12700000D01*
X55090000Y12300000D02*
X55090000Y11750000D01*
X55090000Y12300000D02*
X55090000Y12850000D01*
X54690000Y12300000D02*
X55090000Y12300000D01*
%TO.C,D10*%
X55690000Y29980000D02*
X56190000Y29980000D01*
X55690000Y29580000D02*
X55090000Y29980000D01*
X55690000Y30380000D02*
X55690000Y29580000D01*
X55090000Y29980000D02*
X55690000Y30380000D01*
X55090000Y29980000D02*
X55090000Y29430000D01*
X55090000Y29980000D02*
X55090000Y30530000D01*
X54690000Y29980000D02*
X55090000Y29980000D01*
%TO.C,D11*%
X55690000Y47660000D02*
X56190000Y47660000D01*
X55690000Y47260000D02*
X55090000Y47660000D01*
X55690000Y48060000D02*
X55690000Y47260000D01*
X55090000Y47660000D02*
X55690000Y48060000D01*
X55090000Y47660000D02*
X55090000Y47110000D01*
X55090000Y47660000D02*
X55090000Y48210000D01*
X54690000Y47660000D02*
X55090000Y47660000D01*
%TO.C,D12*%
X55690000Y65340000D02*
X56190000Y65340000D01*
X55690000Y64940000D02*
X55090000Y65340000D01*
X55690000Y65740000D02*
X55690000Y64940000D01*
X55090000Y65340000D02*
X55690000Y65740000D01*
X55090000Y65340000D02*
X55090000Y64790000D01*
X55090000Y65340000D02*
X55090000Y65890000D01*
X54690000Y65340000D02*
X55090000Y65340000D01*
%TO.C,D13*%
X74410000Y19300000D02*
X74910000Y19300000D01*
X74410000Y18900000D02*
X73810000Y19300000D01*
X74410000Y19700000D02*
X74410000Y18900000D01*
X73810000Y19300000D02*
X74410000Y19700000D01*
X73810000Y19300000D02*
X73810000Y18750000D01*
X73810000Y19300000D02*
X73810000Y19850000D01*
X73410000Y19300000D02*
X73810000Y19300000D01*
%TO.C,D14*%
X74410000Y36980000D02*
X74910000Y36980000D01*
X74410000Y36580000D02*
X73810000Y36980000D01*
X74410000Y37380000D02*
X74410000Y36580000D01*
X73810000Y36980000D02*
X74410000Y37380000D01*
X73810000Y36980000D02*
X73810000Y36430000D01*
X73810000Y36980000D02*
X73810000Y37530000D01*
X73410000Y36980000D02*
X73810000Y36980000D01*
%TO.C,D15*%
X74410000Y54660000D02*
X74910000Y54660000D01*
X74410000Y54260000D02*
X73810000Y54660000D01*
X74410000Y55060000D02*
X74410000Y54260000D01*
X73810000Y54660000D02*
X74410000Y55060000D01*
X73810000Y54660000D02*
X73810000Y54110000D01*
X73810000Y54660000D02*
X73810000Y55210000D01*
X73410000Y54660000D02*
X73810000Y54660000D01*
%TO.C,D16*%
X74410000Y72340000D02*
X74910000Y72340000D01*
X74410000Y71940000D02*
X73810000Y72340000D01*
X74410000Y72740000D02*
X74410000Y71940000D01*
X73810000Y72340000D02*
X74410000Y72740000D01*
X73810000Y72340000D02*
X73810000Y71790000D01*
X73810000Y72340000D02*
X73810000Y72890000D01*
X73410000Y72340000D02*
X73810000Y72340000D01*
%TO.C,D17*%
X93130000Y6300000D02*
X93630000Y6300000D01*
X93130000Y5900000D02*
X92530000Y6300000D01*
X93130000Y6700000D02*
X93130000Y5900000D01*
X92530000Y6300000D02*
X93130000Y6700000D01*
X92530000Y6300000D02*
X92530000Y5750000D01*
X92530000Y6300000D02*
X92530000Y6850000D01*
X92130000Y6300000D02*
X92530000Y6300000D01*
%TO.C,D18*%
X93130000Y23980000D02*
X93630000Y23980000D01*
X93130000Y23580000D02*
X92530000Y23980000D01*
X93130000Y24380000D02*
X93130000Y23580000D01*
X92530000Y23980000D02*
X93130000Y24380000D01*
X92530000Y23980000D02*
X92530000Y23430000D01*
X92530000Y23980000D02*
X92530000Y24530000D01*
X92130000Y23980000D02*
X92530000Y23980000D01*
%TO.C,D19*%
X93130000Y41660000D02*
X93630000Y41660000D01*
X93130000Y41260000D02*
X92530000Y41660000D01*
X93130000Y42060000D02*
X93130000Y41260000D01*
X92530000Y41660000D02*
X93130000Y42060000D01*
X92530000Y41660000D02*
X92530000Y41110000D01*
X92530000Y41660000D02*
X92530000Y42210000D01*
X92130000Y41660000D02*
X92530000Y41660000D01*
%TO.C,D20*%
X93130000Y59340000D02*
X93630000Y59340000D01*
X93130000Y58940000D02*
X92530000Y59340000D01*
X93130000Y59740000D02*
X93130000Y58940000D01*
X92530000Y59340000D02*
X93130000Y59740000D01*
X92530000Y59340000D02*
X92530000Y58790000D01*
X92530000Y59340000D02*
X92530000Y59890000D01*
X92130000Y59340000D02*
X92530000Y59340000D01*
%TO.C,D21*%
X111850000Y3800000D02*
X112350000Y3800000D01*
X111850000Y3400000D02*
X111250000Y3800000D01*
X111850000Y4200000D02*
X111850000Y3400000D01*
X111250000Y3800000D02*
X111850000Y4200000D01*
X111250000Y3800000D02*
X111250000Y3250000D01*
X111250000Y3800000D02*
X111250000Y4350000D01*
X110850000Y3800000D02*
X111250000Y3800000D01*
%TO.C,D22*%
X111850000Y21480000D02*
X112350000Y21480000D01*
X111850000Y21080000D02*
X111250000Y21480000D01*
X111850000Y21880000D02*
X111850000Y21080000D01*
X111250000Y21480000D02*
X111850000Y21880000D01*
X111250000Y21480000D02*
X111250000Y20930000D01*
X111250000Y21480000D02*
X111250000Y22030000D01*
X110850000Y21480000D02*
X111250000Y21480000D01*
%TO.C,D23*%
X111850000Y39160000D02*
X112350000Y39160000D01*
X111850000Y38760000D02*
X111250000Y39160000D01*
X111850000Y39560000D02*
X111850000Y38760000D01*
X111250000Y39160000D02*
X111850000Y39560000D01*
X111250000Y39160000D02*
X111250000Y38610000D01*
X111250000Y39160000D02*
X111250000Y39710000D01*
X110850000Y39160000D02*
X111250000Y39160000D01*
%TO.C,D24*%
X111850000Y56840000D02*
X112350000Y56840000D01*
X111850000Y56440000D02*
X111250000Y56840000D01*
X111850000Y57240000D02*
X111850000Y56440000D01*
X111250000Y56840000D02*
X111850000Y57240000D01*
X111250000Y56840000D02*
X111250000Y56290000D01*
X111250000Y56840000D02*
X111250000Y57390000D01*
X110850000Y56840000D02*
X111250000Y56840000D01*
%TO.C,D25*%
X74410000Y-13880000D02*
X74910000Y-13880000D01*
X74410000Y-14280000D02*
X73810000Y-13880000D01*
X74410000Y-13480000D02*
X74410000Y-14280000D01*
X73810000Y-13880000D02*
X74410000Y-13480000D01*
X73810000Y-13880000D02*
X73810000Y-14430000D01*
X73810000Y-13880000D02*
X73810000Y-13330000D01*
X73410000Y-13880000D02*
X73810000Y-13880000D01*
%TO.C,D26*%
X93130000Y-13880000D02*
X93630000Y-13880000D01*
X93130000Y-14280000D02*
X92530000Y-13880000D01*
X93130000Y-13480000D02*
X93130000Y-14280000D01*
X92530000Y-13880000D02*
X93130000Y-13480000D01*
X92530000Y-13880000D02*
X92530000Y-14430000D01*
X92530000Y-13880000D02*
X92530000Y-13330000D01*
X92130000Y-13880000D02*
X92530000Y-13880000D01*
%TO.C,D27*%
X111850000Y-13880000D02*
X112350000Y-13880000D01*
X111850000Y-14280000D02*
X111250000Y-13880000D01*
X111850000Y-13480000D02*
X111850000Y-14280000D01*
X111250000Y-13880000D02*
X111850000Y-13480000D01*
X111250000Y-13880000D02*
X111250000Y-14430000D01*
X111250000Y-13880000D02*
X111250000Y-13330000D01*
X110850000Y-13880000D02*
X111250000Y-13880000D01*
%TO.C,D28*%
X131305723Y-17366805D02*
X131775569Y-17537815D01*
X131168915Y-17742682D02*
X130741908Y-17161593D01*
X131442531Y-16990928D02*
X131168915Y-17742682D01*
X130741908Y-17161593D02*
X131442531Y-16990928D01*
X130741908Y-17161593D02*
X130553797Y-17678424D01*
X130741908Y-17161593D02*
X130930019Y-16644762D01*
X130366031Y-17024785D02*
X130741908Y-17161593D01*
%TO.C,D29*%
X137352623Y-753105D02*
X137822469Y-924115D01*
X137215815Y-1128982D02*
X136788808Y-547893D01*
X137489431Y-377228D02*
X137215815Y-1128982D01*
X136788808Y-547893D02*
X137489431Y-377228D01*
X136788808Y-547893D02*
X136600697Y-1064724D01*
X136788808Y-547893D02*
X136976919Y-31062D01*
X136412931Y-411085D02*
X136788808Y-547893D01*
%TO.C,D30*%
X148395511Y-27297597D02*
X148778533Y-27618991D01*
X148138396Y-27604015D02*
X147935884Y-26911924D01*
X148652626Y-26991179D02*
X148138396Y-27604015D01*
X147935884Y-26911924D02*
X148652626Y-26991179D01*
X147935884Y-26911924D02*
X147582351Y-27333249D01*
X147935884Y-26911924D02*
X148289418Y-26490600D01*
X147629467Y-26654809D02*
X147935884Y-26911924D01*
%TO.C,D31*%
X159759911Y-13753997D02*
X160142933Y-14075391D01*
X159502796Y-14060415D02*
X159300284Y-13368324D01*
X160017026Y-13447579D02*
X159502796Y-14060415D01*
X159300284Y-13368324D02*
X160017026Y-13447579D01*
X159300284Y-13368324D02*
X158946751Y-13789649D01*
X159300284Y-13368324D02*
X159653818Y-12947000D01*
X158993867Y-13111209D02*
X159300284Y-13368324D01*
%TO.C,D32*%
X161058100Y-42474506D02*
X161308100Y-42907519D01*
X160711690Y-42674506D02*
X160758100Y-41954891D01*
X161404510Y-42274506D02*
X160711690Y-42674506D01*
X160758100Y-41954891D02*
X161404510Y-42274506D01*
X160758100Y-41954891D02*
X160281786Y-42229891D01*
X160758100Y-41954891D02*
X161234414Y-41679891D01*
X160558100Y-41608481D02*
X160758100Y-41954891D01*
%TO.C,D33*%
X176369400Y-33634506D02*
X176619400Y-34067519D01*
X176022990Y-33834506D02*
X176069400Y-33114891D01*
X176715810Y-33434506D02*
X176022990Y-33834506D01*
X176069400Y-33114891D02*
X176715810Y-33434506D01*
X176069400Y-33114891D02*
X175593086Y-33389891D01*
X176069400Y-33114891D02*
X176545714Y-32839891D01*
X175869400Y-32768481D02*
X176069400Y-33114891D01*
%TD*%
D11*
%TO.C,MCU1*%
X139220000Y45830000D03*
D12*
X139220000Y43290000D03*
X139220000Y40750000D03*
X139220000Y38210000D03*
X139220000Y35670000D03*
X139220000Y33130000D03*
X139220000Y30590000D03*
X139220000Y28050000D03*
X139220000Y25510000D03*
X139220000Y22970000D03*
X139220000Y20430000D03*
X139220000Y17890000D03*
X123980000Y45830000D03*
X123980000Y43290000D03*
X123980000Y40750000D03*
X123980000Y38210000D03*
X123980000Y35670000D03*
X123980000Y33130000D03*
X123980000Y30590000D03*
X123980000Y28050000D03*
X123980000Y25510000D03*
X123980000Y22970000D03*
X123980000Y20430000D03*
X123980000Y17890000D03*
%TD*%
D11*
%TO.C,MCU2*%
X126480000Y45830000D03*
D12*
X126480000Y43290000D03*
X126480000Y40750000D03*
X126480000Y38210000D03*
X126480000Y35670000D03*
X126480000Y33130000D03*
X126480000Y30590000D03*
X126480000Y28050000D03*
X126480000Y25510000D03*
X126480000Y22970000D03*
X126480000Y20430000D03*
X126480000Y17890000D03*
X141720000Y45830000D03*
X141720000Y43290000D03*
X141720000Y40750000D03*
X141720000Y38210000D03*
X141720000Y35670000D03*
X141720000Y33130000D03*
X141720000Y30590000D03*
X141720000Y28050000D03*
X141720000Y25510000D03*
X141720000Y22970000D03*
X141720000Y20430000D03*
X141720000Y17890000D03*
%TD*%
M02*
