%TF.GenerationSoftware,KiCad,Pcbnew,(6.0.8)*%
%TF.CreationDate,2022-10-04T18:24:03+02:00*%
%TF.ProjectId,board,626f6172-642e-46b6-9963-61645f706362,v1.0.0*%
%TF.SameCoordinates,Original*%
%TF.FileFunction,Copper,L2,Bot*%
%TF.FilePolarity,Positive*%
%FSLAX46Y46*%
G04 Gerber Fmt 4.6, Leading zero omitted, Abs format (unit mm)*
G04 Created by KiCad (PCBNEW (6.0.8)) date 2022-10-04 18:24:03*
%MOMM*%
%LPD*%
G01*
G04 APERTURE LIST*
G04 Aperture macros list*
%AMRotRect*
0 Rectangle, with rotation*
0 The origin of the aperture is its center*
0 $1 length*
0 $2 width*
0 $3 Rotation angle, in degrees counterclockwise*
0 Add horizontal line*
21,1,$1,$2,0,0,$3*%
G04 Aperture macros list end*
%TA.AperFunction,ComponentPad*%
%ADD10C,2.032000*%
%TD*%
%TA.AperFunction,SMDPad,CuDef*%
%ADD11R,0.900000X1.200000*%
%TD*%
%TA.AperFunction,SMDPad,CuDef*%
%ADD12RotRect,0.900000X1.200000X340.000000*%
%TD*%
%TA.AperFunction,SMDPad,CuDef*%
%ADD13RotRect,0.900000X1.200000X320.000000*%
%TD*%
%TA.AperFunction,SMDPad,CuDef*%
%ADD14RotRect,0.900000X1.200000X300.000000*%
%TD*%
%TA.AperFunction,ComponentPad*%
%ADD15R,1.752600X1.752600*%
%TD*%
%TA.AperFunction,ComponentPad*%
%ADD16C,1.752600*%
%TD*%
%TA.AperFunction,ComponentPad*%
%ADD17O,1.600000X2.200000*%
%TD*%
%TA.AperFunction,ComponentPad*%
%ADD18C,2.000000*%
%TD*%
%TA.AperFunction,ViaPad*%
%ADD19C,0.800000*%
%TD*%
%TA.AperFunction,Conductor*%
%ADD20C,0.250000*%
%TD*%
%TA.AperFunction,Conductor*%
%ADD21C,0.500000*%
%TD*%
G04 APERTURE END LIST*
D10*
%TO.P,S1,1*%
%TO.N,pinky_off_bottom*%
X23000000Y3800000D03*
%TO.P,S1,2*%
%TO.N,P10*%
X18000000Y5900000D03*
%TO.P,S1,1*%
%TO.N,pinky_off_bottom*%
X13000000Y3800000D03*
%TO.P,S1,2*%
%TO.N,P10*%
X18000000Y5900000D03*
%TD*%
D11*
%TO.P,D1,2*%
%TO.N,pinky_off_bottom*%
X19650000Y-4700000D03*
%TO.P,D1,1*%
%TO.N,P5*%
X16350000Y-4700000D03*
%TD*%
D10*
%TO.P,S2,1*%
%TO.N,pinky_off_home*%
X23000000Y21480000D03*
%TO.P,S2,2*%
%TO.N,P10*%
X18000000Y23580000D03*
%TO.P,S2,1*%
%TO.N,pinky_off_home*%
X13000000Y21480000D03*
%TO.P,S2,2*%
%TO.N,P10*%
X18000000Y23580000D03*
%TD*%
D11*
%TO.P,D2,2*%
%TO.N,pinky_off_home*%
X19650000Y12980000D03*
%TO.P,D2,1*%
%TO.N,P4*%
X16350000Y12980000D03*
%TD*%
D10*
%TO.P,S3,1*%
%TO.N,pinky_off_top*%
X23000000Y39160000D03*
%TO.P,S3,2*%
%TO.N,P10*%
X18000000Y41260000D03*
%TO.P,S3,1*%
%TO.N,pinky_off_top*%
X13000000Y39160000D03*
%TO.P,S3,2*%
%TO.N,P10*%
X18000000Y41260000D03*
%TD*%
D11*
%TO.P,D3,2*%
%TO.N,pinky_off_top*%
X19650000Y30660000D03*
%TO.P,D3,1*%
%TO.N,P3*%
X16350000Y30660000D03*
%TD*%
D10*
%TO.P,S4,1*%
%TO.N,pinky_off_over*%
X23000000Y56840000D03*
%TO.P,S4,2*%
%TO.N,P10*%
X18000000Y58940000D03*
%TO.P,S4,1*%
%TO.N,pinky_off_over*%
X13000000Y56840000D03*
%TO.P,S4,2*%
%TO.N,P10*%
X18000000Y58940000D03*
%TD*%
D11*
%TO.P,D4,2*%
%TO.N,pinky_off_over*%
X19650000Y48340000D03*
%TO.P,D4,1*%
%TO.N,P2*%
X16350000Y48340000D03*
%TD*%
D10*
%TO.P,S5,1*%
%TO.N,pinky_bottom*%
X41720000Y3800000D03*
%TO.P,S5,2*%
%TO.N,P16*%
X36720000Y5900000D03*
%TO.P,S5,1*%
%TO.N,pinky_bottom*%
X31720000Y3800000D03*
%TO.P,S5,2*%
%TO.N,P16*%
X36720000Y5900000D03*
%TD*%
D11*
%TO.P,D5,2*%
%TO.N,pinky_bottom*%
X38370000Y-4700000D03*
%TO.P,D5,1*%
%TO.N,P5*%
X35070000Y-4700000D03*
%TD*%
D10*
%TO.P,S6,1*%
%TO.N,pinky_home*%
X41720000Y21480000D03*
%TO.P,S6,2*%
%TO.N,P16*%
X36720000Y23580000D03*
%TO.P,S6,1*%
%TO.N,pinky_home*%
X31720000Y21480000D03*
%TO.P,S6,2*%
%TO.N,P16*%
X36720000Y23580000D03*
%TD*%
D11*
%TO.P,D6,2*%
%TO.N,pinky_home*%
X38370000Y12980000D03*
%TO.P,D6,1*%
%TO.N,P4*%
X35070000Y12980000D03*
%TD*%
D10*
%TO.P,S7,1*%
%TO.N,pinky_top*%
X41720000Y39160000D03*
%TO.P,S7,2*%
%TO.N,P16*%
X36720000Y41260000D03*
%TO.P,S7,1*%
%TO.N,pinky_top*%
X31720000Y39160000D03*
%TO.P,S7,2*%
%TO.N,P16*%
X36720000Y41260000D03*
%TD*%
D11*
%TO.P,D7,2*%
%TO.N,pinky_top*%
X38370000Y30660000D03*
%TO.P,D7,1*%
%TO.N,P3*%
X35070000Y30660000D03*
%TD*%
D10*
%TO.P,S8,1*%
%TO.N,pinky_over*%
X41720000Y56840000D03*
%TO.P,S8,2*%
%TO.N,P16*%
X36720000Y58940000D03*
%TO.P,S8,1*%
%TO.N,pinky_over*%
X31720000Y56840000D03*
%TO.P,S8,2*%
%TO.N,P16*%
X36720000Y58940000D03*
%TD*%
D11*
%TO.P,D8,2*%
%TO.N,pinky_over*%
X38370000Y48340000D03*
%TO.P,D8,1*%
%TO.N,P2*%
X35070000Y48340000D03*
%TD*%
D10*
%TO.P,S9,1*%
%TO.N,ring_bottom*%
X60440000Y20800000D03*
%TO.P,S9,2*%
%TO.N,P14*%
X55440000Y22900000D03*
%TO.P,S9,1*%
%TO.N,ring_bottom*%
X50440000Y20800000D03*
%TO.P,S9,2*%
%TO.N,P14*%
X55440000Y22900000D03*
%TD*%
D11*
%TO.P,D9,2*%
%TO.N,ring_bottom*%
X57090000Y12300000D03*
%TO.P,D9,1*%
%TO.N,P5*%
X53790000Y12300000D03*
%TD*%
D10*
%TO.P,S10,1*%
%TO.N,ring_home*%
X60440000Y38480000D03*
%TO.P,S10,2*%
%TO.N,P14*%
X55440000Y40580000D03*
%TO.P,S10,1*%
%TO.N,ring_home*%
X50440000Y38480000D03*
%TO.P,S10,2*%
%TO.N,P14*%
X55440000Y40580000D03*
%TD*%
D11*
%TO.P,D10,2*%
%TO.N,ring_home*%
X57090000Y29980000D03*
%TO.P,D10,1*%
%TO.N,P4*%
X53790000Y29980000D03*
%TD*%
D10*
%TO.P,S11,1*%
%TO.N,ring_top*%
X60440000Y56160000D03*
%TO.P,S11,2*%
%TO.N,P14*%
X55440000Y58260000D03*
%TO.P,S11,1*%
%TO.N,ring_top*%
X50440000Y56160000D03*
%TO.P,S11,2*%
%TO.N,P14*%
X55440000Y58260000D03*
%TD*%
D11*
%TO.P,D11,2*%
%TO.N,ring_top*%
X57090000Y47660000D03*
%TO.P,D11,1*%
%TO.N,P3*%
X53790000Y47660000D03*
%TD*%
D10*
%TO.P,S12,1*%
%TO.N,ring_over*%
X60440000Y73840000D03*
%TO.P,S12,2*%
%TO.N,P14*%
X55440000Y75940000D03*
%TO.P,S12,1*%
%TO.N,ring_over*%
X50440000Y73840000D03*
%TO.P,S12,2*%
%TO.N,P14*%
X55440000Y75940000D03*
%TD*%
D11*
%TO.P,D12,2*%
%TO.N,ring_over*%
X57090000Y65340000D03*
%TO.P,D12,1*%
%TO.N,P2*%
X53790000Y65340000D03*
%TD*%
D10*
%TO.P,S13,1*%
%TO.N,middle_bottom*%
X79160000Y27800000D03*
%TO.P,S13,2*%
%TO.N,P15*%
X74160000Y29900000D03*
%TO.P,S13,1*%
%TO.N,middle_bottom*%
X69160000Y27800000D03*
%TO.P,S13,2*%
%TO.N,P15*%
X74160000Y29900000D03*
%TD*%
D11*
%TO.P,D13,2*%
%TO.N,middle_bottom*%
X75810000Y19300000D03*
%TO.P,D13,1*%
%TO.N,P5*%
X72510000Y19300000D03*
%TD*%
D10*
%TO.P,S14,1*%
%TO.N,middle_home*%
X79160000Y45480000D03*
%TO.P,S14,2*%
%TO.N,P15*%
X74160000Y47580000D03*
%TO.P,S14,1*%
%TO.N,middle_home*%
X69160000Y45480000D03*
%TO.P,S14,2*%
%TO.N,P15*%
X74160000Y47580000D03*
%TD*%
D11*
%TO.P,D14,2*%
%TO.N,middle_home*%
X75810000Y36980000D03*
%TO.P,D14,1*%
%TO.N,P4*%
X72510000Y36980000D03*
%TD*%
D10*
%TO.P,S15,1*%
%TO.N,middle_top*%
X79160000Y63160000D03*
%TO.P,S15,2*%
%TO.N,P15*%
X74160000Y65260000D03*
%TO.P,S15,1*%
%TO.N,middle_top*%
X69160000Y63160000D03*
%TO.P,S15,2*%
%TO.N,P15*%
X74160000Y65260000D03*
%TD*%
D11*
%TO.P,D15,2*%
%TO.N,middle_top*%
X75810000Y54660000D03*
%TO.P,D15,1*%
%TO.N,P3*%
X72510000Y54660000D03*
%TD*%
D10*
%TO.P,S16,1*%
%TO.N,middle_over*%
X79160000Y80840000D03*
%TO.P,S16,2*%
%TO.N,P15*%
X74160000Y82940000D03*
%TO.P,S16,1*%
%TO.N,middle_over*%
X69160000Y80840000D03*
%TO.P,S16,2*%
%TO.N,P15*%
X74160000Y82940000D03*
%TD*%
D11*
%TO.P,D16,2*%
%TO.N,middle_over*%
X75810000Y72340000D03*
%TO.P,D16,1*%
%TO.N,P2*%
X72510000Y72340000D03*
%TD*%
D10*
%TO.P,S17,1*%
%TO.N,index_bottom*%
X97880000Y14800000D03*
%TO.P,S17,2*%
%TO.N,P18*%
X92880000Y16900000D03*
%TO.P,S17,1*%
%TO.N,index_bottom*%
X87880000Y14800000D03*
%TO.P,S17,2*%
%TO.N,P18*%
X92880000Y16900000D03*
%TD*%
D11*
%TO.P,D17,2*%
%TO.N,index_bottom*%
X94530000Y6300000D03*
%TO.P,D17,1*%
%TO.N,P5*%
X91230000Y6300000D03*
%TD*%
D10*
%TO.P,S18,1*%
%TO.N,index_home*%
X97880000Y32480000D03*
%TO.P,S18,2*%
%TO.N,P18*%
X92880000Y34580000D03*
%TO.P,S18,1*%
%TO.N,index_home*%
X87880000Y32480000D03*
%TO.P,S18,2*%
%TO.N,P18*%
X92880000Y34580000D03*
%TD*%
D11*
%TO.P,D18,2*%
%TO.N,index_home*%
X94530000Y23980000D03*
%TO.P,D18,1*%
%TO.N,P4*%
X91230000Y23980000D03*
%TD*%
D10*
%TO.P,S19,1*%
%TO.N,index_top*%
X97880000Y50160000D03*
%TO.P,S19,2*%
%TO.N,P18*%
X92880000Y52260000D03*
%TO.P,S19,1*%
%TO.N,index_top*%
X87880000Y50160000D03*
%TO.P,S19,2*%
%TO.N,P18*%
X92880000Y52260000D03*
%TD*%
D11*
%TO.P,D19,2*%
%TO.N,index_top*%
X94530000Y41660000D03*
%TO.P,D19,1*%
%TO.N,P3*%
X91230000Y41660000D03*
%TD*%
D10*
%TO.P,S20,1*%
%TO.N,index_over*%
X97880000Y67840000D03*
%TO.P,S20,2*%
%TO.N,P18*%
X92880000Y69940000D03*
%TO.P,S20,1*%
%TO.N,index_over*%
X87880000Y67840000D03*
%TO.P,S20,2*%
%TO.N,P18*%
X92880000Y69940000D03*
%TD*%
D11*
%TO.P,D20,2*%
%TO.N,index_over*%
X94530000Y59340000D03*
%TO.P,D20,1*%
%TO.N,P2*%
X91230000Y59340000D03*
%TD*%
D10*
%TO.P,S21,1*%
%TO.N,inner_bottom*%
X116600000Y12300000D03*
%TO.P,S21,2*%
%TO.N,P19*%
X111600000Y14400000D03*
%TO.P,S21,1*%
%TO.N,inner_bottom*%
X106600000Y12300000D03*
%TO.P,S21,2*%
%TO.N,P19*%
X111600000Y14400000D03*
%TD*%
D11*
%TO.P,D21,2*%
%TO.N,inner_bottom*%
X113250000Y3800000D03*
%TO.P,D21,1*%
%TO.N,P5*%
X109950000Y3800000D03*
%TD*%
D10*
%TO.P,S22,1*%
%TO.N,inner_home*%
X116600000Y29980000D03*
%TO.P,S22,2*%
%TO.N,P19*%
X111600000Y32080000D03*
%TO.P,S22,1*%
%TO.N,inner_home*%
X106600000Y29980000D03*
%TO.P,S22,2*%
%TO.N,P19*%
X111600000Y32080000D03*
%TD*%
D11*
%TO.P,D22,2*%
%TO.N,inner_home*%
X113250000Y21480000D03*
%TO.P,D22,1*%
%TO.N,P4*%
X109950000Y21480000D03*
%TD*%
D10*
%TO.P,S23,1*%
%TO.N,inner_top*%
X116600000Y47660000D03*
%TO.P,S23,2*%
%TO.N,P19*%
X111600000Y49760000D03*
%TO.P,S23,1*%
%TO.N,inner_top*%
X106600000Y47660000D03*
%TO.P,S23,2*%
%TO.N,P19*%
X111600000Y49760000D03*
%TD*%
D11*
%TO.P,D23,2*%
%TO.N,inner_top*%
X113250000Y39160000D03*
%TO.P,D23,1*%
%TO.N,P3*%
X109950000Y39160000D03*
%TD*%
D10*
%TO.P,S24,1*%
%TO.N,inner_over*%
X116600000Y65340000D03*
%TO.P,S24,2*%
%TO.N,P19*%
X111600000Y67440000D03*
%TO.P,S24,1*%
%TO.N,inner_over*%
X106600000Y65340000D03*
%TO.P,S24,2*%
%TO.N,P19*%
X111600000Y67440000D03*
%TD*%
D11*
%TO.P,D24,2*%
%TO.N,inner_over*%
X113250000Y56840000D03*
%TO.P,D24,1*%
%TO.N,P2*%
X109950000Y56840000D03*
%TD*%
D10*
%TO.P,S25,1*%
%TO.N,inner_thumb*%
X79160000Y-5380000D03*
%TO.P,S25,2*%
%TO.N,P10*%
X74160000Y-3280000D03*
%TO.P,S25,1*%
%TO.N,inner_thumb*%
X69160000Y-5380000D03*
%TO.P,S25,2*%
%TO.N,P10*%
X74160000Y-3280000D03*
%TD*%
D11*
%TO.P,D25,2*%
%TO.N,inner_thumb*%
X75810000Y-13880000D03*
%TO.P,D25,1*%
%TO.N,P7*%
X72510000Y-13880000D03*
%TD*%
D10*
%TO.P,S26,1*%
%TO.N,near_thumb*%
X97880000Y-5380000D03*
%TO.P,S26,2*%
%TO.N,P16*%
X92880000Y-3280000D03*
%TO.P,S26,1*%
%TO.N,near_thumb*%
X87880000Y-5380000D03*
%TO.P,S26,2*%
%TO.N,P16*%
X92880000Y-3280000D03*
%TD*%
D11*
%TO.P,D26,2*%
%TO.N,near_thumb*%
X94530000Y-13880000D03*
%TO.P,D26,1*%
%TO.N,P7*%
X91230000Y-13880000D03*
%TD*%
D10*
%TO.P,S27,1*%
%TO.N,home_thumb*%
X116600000Y-5380000D03*
%TO.P,S27,2*%
%TO.N,P14*%
X111600000Y-3280000D03*
%TO.P,S27,1*%
%TO.N,home_thumb*%
X106600000Y-5380000D03*
%TO.P,S27,2*%
%TO.N,P14*%
X111600000Y-3280000D03*
%TD*%
D11*
%TO.P,D27,2*%
%TO.N,home_thumb*%
X113250000Y-13880000D03*
%TO.P,D27,1*%
%TO.N,P7*%
X109950000Y-13880000D03*
%TD*%
D10*
%TO.P,S28,1*%
%TO.N,far_thumb*%
X138676340Y-11004069D03*
%TO.P,S28,2*%
%TO.N,P15*%
X134696119Y-7320614D03*
%TO.P,S28,1*%
%TO.N,far_thumb*%
X129279413Y-7583867D03*
%TO.P,S28,2*%
%TO.N,P15*%
X134696119Y-7320614D03*
%TD*%
D12*
%TO.P,D28,2*%
%TO.N,far_thumb*%
X132621293Y-17845633D03*
%TO.P,D28,1*%
%TO.N,P7*%
X129520307Y-16716967D03*
%TD*%
D10*
%TO.P,S29,1*%
%TO.N,far_over*%
X144723340Y5609731D03*
%TO.P,S29,2*%
%TO.N,P15*%
X140743119Y9293186D03*
%TO.P,S29,1*%
%TO.N,far_over*%
X135326413Y9029933D03*
%TO.P,S29,2*%
%TO.N,P15*%
X140743119Y9293186D03*
%TD*%
D12*
%TO.P,D29,2*%
%TO.N,far_over*%
X138668193Y-1231933D03*
%TO.P,D29,1*%
%TO.N,P6*%
X135567207Y-103267D03*
%TD*%
D10*
%TO.P,S30,1*%
%TO.N,farther_thumb*%
X157497915Y-23839469D03*
%TO.P,S30,2*%
%TO.N,P18*%
X155017547Y-19016838D03*
%TO.P,S30,1*%
%TO.N,farther_thumb*%
X149837471Y-17411593D03*
%TO.P,S30,2*%
%TO.N,P18*%
X155017547Y-19016838D03*
%TD*%
D13*
%TO.P,D30,2*%
%TO.N,farther_thumb*%
X149467973Y-28197500D03*
%TO.P,D30,1*%
%TO.N,P7*%
X146940027Y-26076300D03*
%TD*%
D10*
%TO.P,S31,1*%
%TO.N,farther_over*%
X168862315Y-10295769D03*
%TO.P,S31,2*%
%TO.N,P18*%
X166381947Y-5473138D03*
%TO.P,S31,1*%
%TO.N,farther_over*%
X161201871Y-3867893D03*
%TO.P,S31,2*%
%TO.N,P18*%
X166381947Y-5473138D03*
%TD*%
D13*
%TO.P,D31,2*%
%TO.N,farther_over*%
X160832373Y-14653900D03*
%TO.P,D31,1*%
%TO.N,P6*%
X158304427Y-12532700D03*
%TD*%
D10*
%TO.P,S32,1*%
%TO.N,outer_thumb*%
X170794297Y-42338127D03*
%TO.P,S32,2*%
%TO.N,P19*%
X170112950Y-36958000D03*
%TO.P,S32,1*%
%TO.N,outer_thumb*%
X165794297Y-33677873D03*
%TO.P,S32,2*%
%TO.N,P19*%
X170112950Y-36958000D03*
%TD*%
D14*
%TO.P,D32,2*%
%TO.N,outer_thumb*%
X161758100Y-43686942D03*
%TO.P,D32,1*%
%TO.N,P7*%
X160108100Y-40829058D03*
%TD*%
D10*
%TO.P,S33,1*%
%TO.N,outer_over*%
X186105597Y-33498127D03*
%TO.P,S33,2*%
%TO.N,P19*%
X185424250Y-28118000D03*
%TO.P,S33,1*%
%TO.N,outer_over*%
X181105597Y-24837873D03*
%TO.P,S33,2*%
%TO.N,P19*%
X185424250Y-28118000D03*
%TD*%
D14*
%TO.P,D33,2*%
%TO.N,outer_over*%
X177069400Y-34846942D03*
%TO.P,D33,1*%
%TO.N,P6*%
X175419400Y-31989058D03*
%TD*%
D15*
%TO.P,MCU1,1*%
%TO.N,RAW*%
X139220000Y45830000D03*
D16*
%TO.P,MCU1,2*%
%TO.N,GND*%
X139220000Y43290000D03*
%TO.P,MCU1,3*%
%TO.N,RST*%
X139220000Y40750000D03*
%TO.P,MCU1,4*%
%TO.N,VCC*%
X139220000Y38210000D03*
%TO.P,MCU1,5*%
%TO.N,P21*%
X139220000Y35670000D03*
%TO.P,MCU1,6*%
%TO.N,P20*%
X139220000Y33130000D03*
%TO.P,MCU1,7*%
%TO.N,P19*%
X139220000Y30590000D03*
%TO.P,MCU1,8*%
%TO.N,P18*%
X139220000Y28050000D03*
%TO.P,MCU1,9*%
%TO.N,P15*%
X139220000Y25510000D03*
%TO.P,MCU1,10*%
%TO.N,P14*%
X139220000Y22970000D03*
%TO.P,MCU1,11*%
%TO.N,P16*%
X139220000Y20430000D03*
%TO.P,MCU1,12*%
%TO.N,P10*%
X139220000Y17890000D03*
%TO.P,MCU1,13*%
%TO.N,P1*%
X123980000Y45830000D03*
%TO.P,MCU1,14*%
%TO.N,P0*%
X123980000Y43290000D03*
%TO.P,MCU1,15*%
%TO.N,GND*%
X123980000Y40750000D03*
%TO.P,MCU1,16*%
X123980000Y38210000D03*
%TO.P,MCU1,17*%
%TO.N,P2*%
X123980000Y35670000D03*
%TO.P,MCU1,18*%
%TO.N,P3*%
X123980000Y33130000D03*
%TO.P,MCU1,19*%
%TO.N,P4*%
X123980000Y30590000D03*
%TO.P,MCU1,20*%
%TO.N,P5*%
X123980000Y28050000D03*
%TO.P,MCU1,21*%
%TO.N,P6*%
X123980000Y25510000D03*
%TO.P,MCU1,22*%
%TO.N,P7*%
X123980000Y22970000D03*
%TO.P,MCU1,23*%
%TO.N,P8*%
X123980000Y20430000D03*
%TO.P,MCU1,24*%
%TO.N,P9*%
X123980000Y17890000D03*
%TD*%
D15*
%TO.P,MCU2,1*%
%TO.N,RAW*%
X126480000Y45830000D03*
D16*
%TO.P,MCU2,2*%
%TO.N,GND*%
X126480000Y43290000D03*
%TO.P,MCU2,3*%
%TO.N,RST*%
X126480000Y40750000D03*
%TO.P,MCU2,4*%
%TO.N,VCC*%
X126480000Y38210000D03*
%TO.P,MCU2,5*%
%TO.N,P21*%
X126480000Y35670000D03*
%TO.P,MCU2,6*%
%TO.N,P20*%
X126480000Y33130000D03*
%TO.P,MCU2,7*%
%TO.N,P19*%
X126480000Y30590000D03*
%TO.P,MCU2,8*%
%TO.N,P18*%
X126480000Y28050000D03*
%TO.P,MCU2,9*%
%TO.N,P15*%
X126480000Y25510000D03*
%TO.P,MCU2,10*%
%TO.N,P14*%
X126480000Y22970000D03*
%TO.P,MCU2,11*%
%TO.N,P16*%
X126480000Y20430000D03*
%TO.P,MCU2,12*%
%TO.N,P10*%
X126480000Y17890000D03*
%TO.P,MCU2,13*%
%TO.N,P1*%
X141720000Y45830000D03*
%TO.P,MCU2,14*%
%TO.N,P0*%
X141720000Y43290000D03*
%TO.P,MCU2,15*%
%TO.N,GND*%
X141720000Y40750000D03*
%TO.P,MCU2,16*%
X141720000Y38210000D03*
%TO.P,MCU2,17*%
%TO.N,P2*%
X141720000Y35670000D03*
%TO.P,MCU2,18*%
%TO.N,P3*%
X141720000Y33130000D03*
%TO.P,MCU2,19*%
%TO.N,P4*%
X141720000Y30590000D03*
%TO.P,MCU2,20*%
%TO.N,P5*%
X141720000Y28050000D03*
%TO.P,MCU2,21*%
%TO.N,P6*%
X141720000Y25510000D03*
%TO.P,MCU2,22*%
%TO.N,P7*%
X141720000Y22970000D03*
%TO.P,MCU2,23*%
%TO.N,P8*%
X141720000Y20430000D03*
%TO.P,MCU2,24*%
%TO.N,P9*%
X141720000Y17890000D03*
%TD*%
D17*
%TO.P,TRRS1,1*%
%TO.N,N/C*%
X154989500Y5507200D03*
%TO.P,TRRS1,2*%
%TO.N,VCC*%
X159589500Y6607200D03*
%TO.P,TRRS1,3*%
%TO.N,GND*%
X159589500Y10607200D03*
%TO.P,TRRS1,4*%
%TO.N,P0*%
X159589500Y13607200D03*
%TD*%
%TO.P,TRRS2,1*%
%TO.N,N/C*%
X157589500Y5507200D03*
%TO.P,TRRS2,2*%
%TO.N,VCC*%
X152989500Y6607200D03*
%TO.P,TRRS2,3*%
%TO.N,GND*%
X152989500Y10607200D03*
%TO.P,TRRS2,4*%
%TO.N,P0*%
X152989500Y13607200D03*
%TD*%
%TO.P,TRRS3,1*%
%TO.N,N/C*%
X39840000Y67580000D03*
%TO.P,TRRS3,2*%
%TO.N,VCC*%
X44440000Y68680000D03*
%TO.P,TRRS3,3*%
%TO.N,GND*%
X44440000Y72680000D03*
%TO.P,TRRS3,4*%
%TO.N,P0*%
X44440000Y75680000D03*
%TD*%
%TO.P,TRRS4,1*%
%TO.N,N/C*%
X42440000Y67580000D03*
%TO.P,TRRS4,2*%
%TO.N,VCC*%
X37840000Y68680000D03*
%TO.P,TRRS4,3*%
%TO.N,GND*%
X37840000Y72680000D03*
%TO.P,TRRS4,4*%
%TO.N,P0*%
X37840000Y75680000D03*
%TD*%
D18*
%TO.P,B1,2*%
%TO.N,GND*%
X52190000Y0D03*
%TO.P,B1,1*%
%TO.N,RST*%
X58690000Y0D03*
%TD*%
D19*
%TO.N,RST*%
X136866400Y40682700D03*
%TO.N,P6*%
X158977600Y-11370600D03*
%TO.N,P7*%
X129956500Y-15336500D03*
X147604600Y-27847700D03*
%TO.N,P19*%
X118796100Y33765100D03*
%TO.N,P2*%
X102460100Y56840000D03*
X36234800Y48614100D03*
X66490700Y68220700D03*
%TO.N,P3*%
X36226700Y30991600D03*
X55210200Y46652400D03*
%TO.N,P4*%
X54900100Y30051600D03*
X111054200Y21706000D03*
X35568100Y14257400D03*
%TO.N,P5*%
X54904400Y12589300D03*
X94466900Y4396800D03*
X26858900Y-5675200D03*
%TD*%
D20*
%TO.N,P0*%
X125268500Y44578500D02*
X123980000Y43290000D01*
X140431500Y44578500D02*
X125268500Y44578500D01*
X141720000Y43290000D02*
X140431500Y44578500D01*
X118214200Y49055800D02*
X123980000Y43290000D01*
X115713800Y49055800D02*
X118214200Y49055800D01*
X114999300Y48341300D02*
X115713800Y49055800D01*
X110074000Y48341300D02*
X114999300Y48341300D01*
X106833600Y51581700D02*
X110074000Y48341300D01*
X97262200Y51581700D02*
X106833600Y51581700D01*
X96528500Y50848000D02*
X97262200Y51581700D01*
X92287200Y50848000D02*
X96528500Y50848000D01*
X80886100Y62249100D02*
X92287200Y50848000D01*
X80886100Y81118400D02*
X80886100Y62249100D01*
X77652400Y84352100D02*
X80886100Y81118400D01*
X70252600Y84352100D02*
X77652400Y84352100D01*
X64248100Y78347600D02*
X70252600Y84352100D01*
X48282700Y78347600D02*
X64248100Y78347600D01*
X45615100Y75680000D02*
X48282700Y78347600D01*
X44440000Y75680000D02*
X45615100Y75680000D01*
%TO.N,P1*%
X125231500Y47081500D02*
X123980000Y45830000D01*
X140468500Y47081500D02*
X125231500Y47081500D01*
X141720000Y45830000D02*
X140468500Y47081500D01*
D21*
%TO.N,VCC*%
X147448100Y6607200D02*
X152989500Y6607200D01*
X131062000Y22993300D02*
X147448100Y6607200D01*
X131062000Y33628000D02*
X131062000Y22993300D01*
X126480000Y38210000D02*
X131062000Y33628000D01*
D20*
%TO.N,RST*%
X126547300Y40682700D02*
X136866400Y40682700D01*
X126480000Y40750000D02*
X126547300Y40682700D01*
X125210000Y39480000D02*
X126480000Y40750000D01*
X121148700Y39480000D02*
X125210000Y39480000D01*
X118377000Y36708300D02*
X121148700Y39480000D01*
X97454400Y36708300D02*
X118377000Y36708300D01*
X60746100Y0D02*
X97454400Y36708300D01*
X58690000Y0D02*
X60746100Y0D01*
D21*
%TO.N,GND*%
X141720000Y40790000D02*
X139220000Y43290000D01*
X141720000Y40750000D02*
X141720000Y40790000D01*
X126480000Y43290000D02*
X137826600Y43290000D01*
X137826600Y43290000D02*
X139220000Y43290000D01*
X44440000Y72680000D02*
X45740100Y72680000D01*
X137826600Y17289600D02*
X137826600Y43290000D01*
X144509000Y10607200D02*
X137826600Y17289600D01*
X152989500Y10607200D02*
X144509000Y10607200D01*
X118329900Y40750000D02*
X123980000Y40750000D01*
X114913400Y37333500D02*
X118329900Y40750000D01*
X84352900Y37333500D02*
X114913400Y37333500D01*
X71265700Y24246300D02*
X84352900Y37333500D01*
X71265700Y22316200D02*
X71265700Y24246300D01*
X73526900Y20055000D02*
X71265700Y22316200D01*
X73526900Y18540100D02*
X73526900Y20055000D01*
X54986800Y0D02*
X73526900Y18540100D01*
X52190000Y0D02*
X54986800Y0D01*
X45740100Y30455600D02*
X45740100Y72680000D01*
X54815600Y21380100D02*
X45740100Y30455600D01*
X56688100Y21380100D02*
X54815600Y21380100D01*
X57624200Y22316200D02*
X56688100Y21380100D01*
X71265700Y22316200D02*
X57624200Y22316200D01*
%TO.N,RAW*%
X126480000Y45830000D02*
X139220000Y45830000D01*
D20*
%TO.N,outer_over*%
X177069400Y-34846900D02*
X178105300Y-34248800D01*
X178105400Y-34248900D02*
X178105300Y-34248800D01*
X180186500Y-34248900D02*
X178105400Y-34248900D01*
X183521500Y-30913900D02*
X180186500Y-34248900D01*
X181105600Y-28498100D02*
X183521500Y-30913900D01*
X181105600Y-24837900D02*
X181105600Y-28498100D01*
X183521500Y-30913900D02*
X186105600Y-33498100D01*
%TO.N,outer_thumb*%
X161758100Y-42202900D02*
X161214900Y-42746100D01*
X161758100Y-37714100D02*
X161758100Y-42202900D01*
X165794300Y-33677900D02*
X161758100Y-37714100D01*
X161758100Y-43686900D02*
X161214900Y-42746100D01*
%TO.N,farther_over*%
X160832400Y-14653900D02*
X161505600Y-13851600D01*
X168862300Y-10295800D02*
X166077000Y-10295800D01*
X166077000Y-8743000D02*
X166077000Y-10295800D01*
X161201900Y-3867900D02*
X166077000Y-8743000D01*
X161505700Y-13851700D02*
X161505600Y-13851600D01*
X161634600Y-13851700D02*
X161505700Y-13851700D01*
X163403800Y-12082500D02*
X161634600Y-13851700D01*
X164290300Y-12082500D02*
X163403800Y-12082500D01*
X166077000Y-10295800D02*
X164290300Y-12082500D01*
%TO.N,farther_thumb*%
X150141300Y-27395300D02*
X150141200Y-27395200D01*
X150270200Y-27395300D02*
X150141300Y-27395300D01*
X152039300Y-25626200D02*
X150270200Y-27395300D01*
X155711200Y-25626200D02*
X152039300Y-25626200D01*
X157497900Y-23839500D02*
X155711200Y-25626200D01*
X149468000Y-28197500D02*
X150141200Y-27395200D01*
%TO.N,P6*%
X158977600Y-11730300D02*
X158977700Y-11730400D01*
X158977600Y-11370600D02*
X158977600Y-11730300D01*
X158304400Y-14476400D02*
X174876200Y-31048200D01*
X158304400Y-14008200D02*
X158304400Y-14476400D01*
X157631200Y-13335000D02*
X158304400Y-14008200D01*
X158304400Y-12532700D02*
X158977700Y-11730400D01*
X175419400Y-31989100D02*
X174876200Y-31048200D01*
X158304400Y-12532700D02*
X157768400Y-13171500D01*
X134458200Y1005700D02*
X134458200Y300300D01*
X131059900Y4404000D02*
X134458200Y1005700D01*
X131059900Y20222700D02*
X131059900Y4404000D01*
X127024100Y24258500D02*
X131059900Y20222700D01*
X125231500Y24258500D02*
X127024100Y24258500D01*
X123980000Y25510000D02*
X125231500Y24258500D01*
X135567200Y-103300D02*
X134458200Y300300D01*
X157699800Y-13253200D02*
X157631200Y-13335000D01*
X136676100Y-808400D02*
X136676100Y-506900D01*
X149120900Y-13253200D02*
X136676100Y-808400D01*
X157699800Y-13253200D02*
X149120900Y-13253200D01*
X157768400Y-13171500D02*
X157699800Y-13253200D01*
X135567200Y-103300D02*
X136676100Y-506900D01*
%TO.N,far_over*%
X138668200Y-1231900D02*
X139104400Y-33400D01*
X136410900Y9029900D02*
X142277200Y3163600D01*
X135326400Y9029900D02*
X136410900Y9029900D01*
X144723300Y5609700D02*
X142277200Y3163600D01*
X139104300Y-33400D02*
X139104400Y-33400D01*
X139104300Y-9300D02*
X139104300Y-33400D01*
X142277200Y3163600D02*
X139104300Y-9300D01*
%TO.N,far_thumb*%
X132621300Y-17845600D02*
X133057500Y-16647100D01*
X130363900Y-7583900D02*
X136230200Y-13450200D01*
X129279400Y-7583900D02*
X130363900Y-7583900D01*
X138676300Y-11004100D02*
X136230200Y-13450200D01*
X133057400Y-16647100D02*
X133057500Y-16647100D01*
X133057400Y-16623000D02*
X133057400Y-16647100D01*
X136230200Y-13450200D02*
X133057400Y-16623000D01*
%TO.N,home_thumb*%
X113250000Y-13880000D02*
X114075100Y-13880000D01*
X114075100Y-7904900D02*
X116600000Y-5380000D01*
X114075100Y-13880000D02*
X114075100Y-7904900D01*
%TO.N,near_thumb*%
X95355100Y-7904900D02*
X95355100Y-13880000D01*
X97880000Y-5380000D02*
X95355100Y-7904900D01*
X94530000Y-13880000D02*
X95355100Y-13880000D01*
%TO.N,P7*%
X74310300Y-14855200D02*
X73335100Y-13880000D01*
X89429700Y-14855200D02*
X74310300Y-14855200D01*
X90404900Y-13880000D02*
X89429700Y-14855200D01*
X91230000Y-13880000D02*
X90404900Y-13880000D01*
X72510000Y-13880000D02*
X73335100Y-13880000D01*
X93030300Y-14855200D02*
X92055100Y-13880000D01*
X108149700Y-14855200D02*
X93030300Y-14855200D01*
X109124900Y-13880000D02*
X108149700Y-14855200D01*
X91230000Y-13880000D02*
X92055100Y-13880000D01*
X113208500Y-16313400D02*
X110775100Y-13880000D01*
X128411300Y-16313400D02*
X113208500Y-16313400D01*
X129520300Y-16717000D02*
X128411300Y-16313400D01*
X109950000Y-13880000D02*
X110775100Y-13880000D01*
X129956500Y-15518300D02*
X129956600Y-15518300D01*
X129956500Y-15336500D02*
X129956500Y-15518300D01*
X129520300Y-16717000D02*
X129956600Y-15518300D01*
X160108100Y-40829100D02*
X159564900Y-39888200D01*
X146940000Y-26076300D02*
X146266800Y-26878600D01*
X109950000Y-13880000D02*
X109442700Y-13880000D01*
X109442700Y-13880000D02*
X109124900Y-13880000D01*
X113899600Y12889600D02*
X123980000Y22970000D01*
X113899600Y7737900D02*
X113899600Y12889600D01*
X112186800Y6025100D02*
X113899600Y7737900D01*
X112186800Y1374200D02*
X112186800Y6025100D01*
X109442700Y-1369900D02*
X112186800Y1374200D01*
X109442700Y-13880000D02*
X109442700Y-1369900D01*
X147604600Y-27927900D02*
X147604600Y-27847700D01*
X159564900Y-39888200D02*
X147604600Y-27927900D01*
X146741900Y-27353700D02*
X146266800Y-26878600D01*
X147030400Y-27353700D02*
X146741900Y-27353700D01*
X147524400Y-27847700D02*
X147030400Y-27353700D01*
X147604600Y-27847700D02*
X147524400Y-27847700D01*
%TO.N,inner_thumb*%
X76635100Y-7904900D02*
X76635100Y-13880000D01*
X79160000Y-5380000D02*
X76635100Y-7904900D01*
X75810000Y-13880000D02*
X76635100Y-13880000D01*
%TO.N,inner_over*%
X113250000Y56840000D02*
X114075100Y56840000D01*
X115397600Y64137600D02*
X116600000Y65340000D01*
X115397600Y58162500D02*
X115397600Y64137600D01*
X114075100Y56840000D02*
X115397600Y58162500D01*
%TO.N,inner_top*%
X114075100Y45135100D02*
X114075100Y39160000D01*
X116600000Y47660000D02*
X114075100Y45135100D01*
X113250000Y39160000D02*
X114075100Y39160000D01*
%TO.N,inner_home*%
X114075100Y27455100D02*
X114075100Y21480000D01*
X116600000Y29980000D02*
X114075100Y27455100D01*
X113250000Y21480000D02*
X114075100Y21480000D01*
%TO.N,P19*%
X111600000Y58164000D02*
X111600000Y49760000D01*
X113700000Y60264000D02*
X111600000Y58164000D01*
X113700000Y65340000D02*
X113700000Y60264000D01*
X111600000Y67440000D02*
X113700000Y65340000D01*
X118796100Y32080000D02*
X111600000Y32080000D01*
X119016100Y31860000D02*
X118796100Y32080000D01*
X125210000Y31860000D02*
X119016100Y31860000D01*
X126480000Y30590000D02*
X125210000Y31860000D01*
X118796100Y32080000D02*
X118796100Y33765100D01*
X185424200Y-24858100D02*
X185424200Y-28118000D01*
X168052400Y-7486300D02*
X185424200Y-24858100D01*
X166413600Y-7486300D02*
X168052400Y-7486300D01*
X162989300Y-4062000D02*
X166413600Y-7486300D01*
X162989300Y-3650300D02*
X162989300Y-4062000D01*
X158517000Y822000D02*
X162989300Y-3650300D01*
X152349200Y822000D02*
X158517000Y822000D01*
X130436800Y22734400D02*
X152349200Y822000D01*
X130436800Y23326000D02*
X130436800Y22734400D01*
X126982800Y26780000D02*
X130436800Y23326000D01*
X127739500Y27536700D02*
X126982800Y26780000D01*
X127739500Y29330500D02*
X127739500Y27536700D01*
X126480000Y30590000D02*
X127739500Y29330500D01*
X111600000Y14968300D02*
X111600000Y14400000D01*
X123411700Y26780000D02*
X111600000Y14968300D01*
X126982800Y26780000D02*
X123411700Y26780000D01*
%TO.N,inner_bottom*%
X113250000Y3800000D02*
X114075100Y3800000D01*
X114575100Y10275100D02*
X116600000Y12300000D01*
X114575100Y4300000D02*
X114575100Y10275100D01*
X114075100Y3800000D02*
X114575100Y4300000D01*
%TO.N,index_over*%
X95355100Y65315100D02*
X95355100Y59340000D01*
X97880000Y67840000D02*
X95355100Y65315100D01*
X94530000Y59340000D02*
X95355100Y59340000D01*
%TO.N,index_top*%
X95355100Y47635100D02*
X95355100Y41660000D01*
X97880000Y50160000D02*
X95355100Y47635100D01*
X94530000Y41660000D02*
X95355100Y41660000D01*
%TO.N,index_home*%
X95355100Y29955100D02*
X95355100Y23980000D01*
X97880000Y32480000D02*
X95355100Y29955100D01*
X94530000Y23980000D02*
X95355100Y23980000D01*
%TO.N,P18*%
X140490000Y26780000D02*
X139220000Y28050000D01*
X142284500Y26780000D02*
X140490000Y26780000D01*
X143196300Y25868200D02*
X142284500Y26780000D01*
X143196300Y17237700D02*
X143196300Y25868200D01*
X148302000Y12132000D02*
X143196300Y17237700D01*
X153480100Y12132000D02*
X148302000Y12132000D01*
X156289500Y9322600D02*
X153480100Y12132000D01*
X156289500Y4619300D02*
X156289500Y9322600D01*
X166381900Y-5473100D02*
X156289500Y4619300D01*
X90378900Y54761100D02*
X92880000Y52260000D01*
X90378900Y67438900D02*
X90378900Y54761100D01*
X92880000Y69940000D02*
X90378900Y67438900D01*
%TO.N,index_bottom*%
X95355100Y12275100D02*
X95355100Y6300000D01*
X97880000Y14800000D02*
X95355100Y12275100D01*
X94530000Y6300000D02*
X95355100Y6300000D01*
%TO.N,middle_over*%
X75810000Y72340000D02*
X76635100Y72340000D01*
X77957600Y79637600D02*
X79160000Y80840000D01*
X77957600Y73662500D02*
X77957600Y79637600D01*
X76635100Y72340000D02*
X77957600Y73662500D01*
%TO.N,middle_top*%
X76635100Y60635100D02*
X76635100Y54660000D01*
X79160000Y63160000D02*
X76635100Y60635100D01*
X75810000Y54660000D02*
X76635100Y54660000D01*
%TO.N,middle_home*%
X75810000Y36980000D02*
X76635100Y36980000D01*
X77957600Y44277600D02*
X79160000Y45480000D01*
X77957600Y38302500D02*
X77957600Y44277600D01*
X76635100Y36980000D02*
X77957600Y38302500D01*
%TO.N,P15*%
X140743100Y11246900D02*
X140743100Y9293200D01*
X126480000Y25510000D02*
X140743100Y11246900D01*
X74160000Y73664000D02*
X74160000Y65260000D01*
X76260000Y75764000D02*
X74160000Y73664000D01*
X76260000Y80840000D02*
X76260000Y75764000D01*
X74160000Y82940000D02*
X76260000Y80840000D01*
X74160000Y38304000D02*
X74160000Y29900000D01*
X76260000Y40404000D02*
X74160000Y38304000D01*
X76260000Y45480000D02*
X76260000Y40404000D01*
X74160000Y47580000D02*
X76260000Y45480000D01*
%TO.N,middle_bottom*%
X76635100Y25275100D02*
X76635100Y19300000D01*
X79160000Y27800000D02*
X76635100Y25275100D01*
X75810000Y19300000D02*
X76635100Y19300000D01*
%TO.N,ring_over*%
X57090000Y65340000D02*
X57915100Y65340000D01*
X55390200Y73840000D02*
X50440000Y73840000D01*
X57915100Y71315100D02*
X55390200Y73840000D01*
X60440000Y73840000D02*
X57915100Y71315100D01*
X57915100Y71315100D02*
X57915100Y65340000D01*
%TO.N,ring_top*%
X57915100Y53635100D02*
X57915100Y47660000D01*
X60440000Y56160000D02*
X57915100Y53635100D01*
X57090000Y47660000D02*
X57915100Y47660000D01*
%TO.N,ring_home*%
X57915100Y35955100D02*
X57915100Y29980000D01*
X60440000Y38480000D02*
X57915100Y35955100D01*
X57090000Y29980000D02*
X57915100Y29980000D01*
%TO.N,P14*%
X118326100Y3446100D02*
X111600000Y-3280000D01*
X118326100Y16608700D02*
X118326100Y3446100D01*
X123435900Y21718500D02*
X118326100Y16608700D01*
X125228500Y21718500D02*
X123435900Y21718500D01*
X126480000Y22970000D02*
X125228500Y21718500D01*
X51512100Y62187900D02*
X55440000Y58260000D01*
X51512100Y70783400D02*
X51512100Y62187900D01*
X49037900Y73257600D02*
X51512100Y70783400D01*
X49037900Y74436300D02*
X49037900Y73257600D01*
X50541600Y75940000D02*
X49037900Y74436300D01*
X55440000Y75940000D02*
X50541600Y75940000D01*
X52964800Y43055200D02*
X55440000Y40580000D01*
X52964800Y55784800D02*
X52964800Y43055200D01*
X55440000Y58260000D02*
X52964800Y55784800D01*
X52964800Y38104800D02*
X55440000Y40580000D01*
X52964800Y25375200D02*
X52964800Y38104800D01*
X55440000Y22900000D02*
X52964800Y25375200D01*
%TO.N,ring_bottom*%
X57915100Y18275100D02*
X57915100Y12300000D01*
X60440000Y20800000D02*
X57915100Y18275100D01*
X57090000Y12300000D02*
X57915100Y12300000D01*
%TO.N,pinky_over*%
X38370000Y48340000D02*
X39195100Y48340000D01*
X36670200Y56840000D02*
X31720000Y56840000D01*
X39195100Y54315100D02*
X36670200Y56840000D01*
X41720000Y56840000D02*
X39195100Y54315100D01*
X39195100Y54315100D02*
X39195100Y48340000D01*
%TO.N,pinky_top*%
X38370000Y30660000D02*
X39195100Y30660000D01*
X39195100Y30660000D02*
X39195100Y37957600D01*
X40517600Y37957600D02*
X39195100Y37957600D01*
X41720000Y39160000D02*
X40517600Y37957600D01*
X32922400Y37957600D02*
X31720000Y39160000D01*
X39195100Y37957600D02*
X32922400Y37957600D01*
%TO.N,pinky_home*%
X38370000Y12980000D02*
X39195100Y12980000D01*
X40517600Y20277600D02*
X41720000Y21480000D01*
X40517600Y14302500D02*
X40517600Y20277600D01*
X39195100Y12980000D02*
X40517600Y14302500D01*
%TO.N,P16*%
X40722400Y45262400D02*
X39164200Y43704200D01*
X40722400Y53872500D02*
X40722400Y45262400D01*
X43177000Y56327100D02*
X40722400Y53872500D01*
X43177000Y57403200D02*
X43177000Y56327100D01*
X41640200Y58940000D02*
X43177000Y57403200D01*
X36720000Y58940000D02*
X41640200Y58940000D01*
X39164200Y43704200D02*
X36720000Y41260000D01*
X40329200Y27189200D02*
X36720000Y23580000D01*
X40329200Y35799300D02*
X40329200Y27189200D01*
X43166900Y38637000D02*
X40329200Y35799300D01*
X43166900Y39701500D02*
X43166900Y38637000D01*
X39164200Y43704200D02*
X43166900Y39701500D01*
X36720000Y13097500D02*
X36720000Y5900000D01*
X38859800Y15237300D02*
X36720000Y13097500D01*
X38859800Y21440200D02*
X38859800Y15237300D01*
X36720000Y23580000D02*
X38859800Y21440200D01*
%TO.N,pinky_bottom*%
X38370000Y-4700000D02*
X39195100Y-4700000D01*
X40517600Y2597600D02*
X41720000Y3800000D01*
X40517600Y-3377500D02*
X40517600Y2597600D01*
X39195100Y-4700000D02*
X40517600Y-3377500D01*
%TO.N,P2*%
X18171800Y47343300D02*
X17175100Y48340000D01*
X33248200Y47343300D02*
X18171800Y47343300D01*
X34244900Y48340000D02*
X33248200Y47343300D01*
X35070000Y48340000D02*
X34244900Y48340000D01*
X16350000Y48340000D02*
X17175100Y48340000D01*
X35070000Y48340000D02*
X35895100Y48340000D01*
X36169200Y48614100D02*
X35895100Y48340000D01*
X36234800Y48614100D02*
X36169200Y48614100D01*
X72510000Y72340000D02*
X71684900Y72340000D01*
X53790000Y65340000D02*
X54615100Y65340000D01*
X67565600Y68220700D02*
X66490700Y68220700D01*
X71684900Y72340000D02*
X67565600Y68220700D01*
X55611800Y64343300D02*
X54615100Y65340000D01*
X62613300Y64343300D02*
X55611800Y64343300D01*
X66490700Y68220700D02*
X62613300Y64343300D01*
X109950000Y56840000D02*
X102460100Y56840000D01*
X94555100Y56840000D02*
X92055100Y59340000D01*
X102460100Y56840000D02*
X94555100Y56840000D01*
X91230000Y59340000D02*
X92055100Y59340000D01*
%TO.N,pinky_off_over*%
X19650000Y48340000D02*
X20475100Y48340000D01*
X17950200Y56840000D02*
X13000000Y56840000D01*
X20475100Y54315100D02*
X17950200Y56840000D01*
X23000000Y56840000D02*
X20475100Y54315100D01*
X20475100Y54315100D02*
X20475100Y48340000D01*
%TO.N,P3*%
X18152000Y29683100D02*
X17175100Y30660000D01*
X33268000Y29683100D02*
X18152000Y29683100D01*
X34244900Y30660000D02*
X33268000Y29683100D01*
X35070000Y30660000D02*
X34244900Y30660000D01*
X16350000Y30660000D02*
X17175100Y30660000D01*
X53790000Y47660000D02*
X54202600Y47660000D01*
X72510000Y54660000D02*
X71684900Y54660000D01*
X35070000Y30660000D02*
X35895100Y30660000D01*
X36226700Y30991600D02*
X35895100Y30660000D01*
X54202600Y47660000D02*
X55210200Y46652400D01*
X63677300Y46652400D02*
X71684900Y54660000D01*
X55210200Y46652400D02*
X63677300Y46652400D01*
X94555100Y39160000D02*
X92055100Y41660000D01*
X109950000Y39160000D02*
X94555100Y39160000D01*
X91642600Y41660000D02*
X92055100Y41660000D01*
X91642600Y41660000D02*
X91230000Y41660000D01*
X86335100Y41660000D02*
X73335100Y54660000D01*
X91230000Y41660000D02*
X86335100Y41660000D01*
X72510000Y54660000D02*
X73335100Y54660000D01*
%TO.N,pinky_off_top*%
X20475100Y36635100D02*
X20475100Y30660000D01*
X23000000Y39160000D02*
X20475100Y36635100D01*
X19650000Y30660000D02*
X20475100Y30660000D01*
%TO.N,P4*%
X18152000Y12003100D02*
X17175100Y12980000D01*
X33268000Y12003100D02*
X18152000Y12003100D01*
X34244900Y12980000D02*
X33268000Y12003100D01*
X35070000Y12980000D02*
X34244900Y12980000D01*
X16350000Y12980000D02*
X17175100Y12980000D01*
X53790000Y29980000D02*
X54615100Y29980000D01*
X72510000Y36980000D02*
X71684900Y36980000D01*
X54686700Y30051600D02*
X54615100Y29980000D01*
X54900100Y30051600D02*
X54686700Y30051600D01*
X63668500Y28963600D02*
X71684900Y36980000D01*
X55988100Y28963600D02*
X63668500Y28963600D01*
X54900100Y30051600D02*
X55988100Y28963600D01*
X94555100Y21480000D02*
X92055100Y23980000D01*
X109950000Y21480000D02*
X94555100Y21480000D01*
X91230000Y23980000D02*
X92055100Y23980000D01*
X109950000Y21480000D02*
X110775100Y21480000D01*
X110828200Y21480000D02*
X110775100Y21480000D01*
X111054200Y21706000D02*
X110828200Y21480000D01*
X112255400Y20504800D02*
X111054200Y21706000D01*
X113894800Y20504800D02*
X112255400Y20504800D01*
X123980000Y30590000D02*
X113894800Y20504800D01*
X35070000Y12980000D02*
X35482600Y12980000D01*
X35568100Y13065500D02*
X35568100Y14257400D01*
X35482600Y12980000D02*
X35568100Y13065500D01*
%TO.N,pinky_off_home*%
X20475100Y18955100D02*
X20475100Y12980000D01*
X23000000Y21480000D02*
X20475100Y18955100D01*
X19650000Y12980000D02*
X20475100Y12980000D01*
%TO.N,P5*%
X35070000Y-4700000D02*
X34244900Y-4700000D01*
X16350000Y-4700000D02*
X17175100Y-4700000D01*
X38945100Y-1650000D02*
X35895100Y-4700000D01*
X38945100Y3029100D02*
X38945100Y-1650000D01*
X48216000Y12300000D02*
X38945100Y3029100D01*
X53790000Y12300000D02*
X48216000Y12300000D01*
X35070000Y-4700000D02*
X35895100Y-4700000D01*
X54904400Y12589300D02*
X54615100Y12300000D01*
X53790000Y12300000D02*
X54615100Y12300000D01*
X91230000Y6300000D02*
X92055100Y6300000D01*
X93958300Y4396800D02*
X92055100Y6300000D01*
X94466900Y4396800D02*
X93958300Y4396800D01*
X56168900Y11324800D02*
X54904400Y12589300D01*
X59605000Y11324800D02*
X56168900Y11324800D01*
X67580200Y19300000D02*
X59605000Y11324800D01*
X72510000Y19300000D02*
X67580200Y19300000D01*
X33269700Y-5675200D02*
X26858900Y-5675200D01*
X34244900Y-4700000D02*
X33269700Y-5675200D01*
X18150300Y-5675200D02*
X17175100Y-4700000D01*
X26858900Y-5675200D02*
X18150300Y-5675200D01*
X109950000Y3800000D02*
X109950000Y4775100D01*
X95288900Y5218800D02*
X94466900Y4396800D01*
X109506300Y5218800D02*
X95288900Y5218800D01*
X109506300Y14273700D02*
X109506300Y5218800D01*
X123282600Y28050000D02*
X109506300Y14273700D01*
X123980000Y28050000D02*
X123282600Y28050000D01*
X109506300Y5218800D02*
X109950000Y4775100D01*
%TO.N,P10*%
X15524800Y26055200D02*
X18000000Y23580000D01*
X15524800Y38784800D02*
X15524800Y26055200D01*
X18000000Y41260000D02*
X15524800Y38784800D01*
X15524800Y8375200D02*
X18000000Y5900000D01*
X15524800Y21104800D02*
X15524800Y8375200D01*
X18000000Y23580000D02*
X15524800Y21104800D01*
%TO.N,pinky_off_bottom*%
X20475100Y1275100D02*
X20475100Y-4700000D01*
X23000000Y3800000D02*
X20475100Y1275100D01*
X19650000Y-4700000D02*
X20475100Y-4700000D01*
%TD*%
M02*
