%TF.GenerationSoftware,KiCad,Pcbnew,(6.0.8)*%
%TF.CreationDate,2022-10-04T18:24:03+02:00*%
%TF.ProjectId,board,626f6172-642e-46b6-9963-61645f706362,v1.0.0*%
%TF.SameCoordinates,Original*%
%TF.FileFunction,Paste,Bot*%
%TF.FilePolarity,Positive*%
%FSLAX46Y46*%
G04 Gerber Fmt 4.6, Leading zero omitted, Abs format (unit mm)*
G04 Created by KiCad (PCBNEW (6.0.8)) date 2022-10-04 18:24:03*
%MOMM*%
%LPD*%
G01*
G04 APERTURE LIST*
G04 Aperture macros list*
%AMRotRect*
0 Rectangle, with rotation*
0 The origin of the aperture is its center*
0 $1 length*
0 $2 width*
0 $3 Rotation angle, in degrees counterclockwise*
0 Add horizontal line*
21,1,$1,$2,0,0,$3*%
G04 Aperture macros list end*
%ADD10R,0.900000X1.200000*%
%ADD11RotRect,0.900000X1.200000X340.000000*%
%ADD12RotRect,0.900000X1.200000X320.000000*%
%ADD13RotRect,0.900000X1.200000X300.000000*%
G04 APERTURE END LIST*
D10*
%TO.C,D1*%
X19650000Y-4700000D03*
X16350000Y-4700000D03*
%TD*%
%TO.C,D2*%
X19650000Y12980000D03*
X16350000Y12980000D03*
%TD*%
%TO.C,D3*%
X19650000Y30660000D03*
X16350000Y30660000D03*
%TD*%
%TO.C,D4*%
X19650000Y48340000D03*
X16350000Y48340000D03*
%TD*%
%TO.C,D5*%
X38370000Y-4700000D03*
X35070000Y-4700000D03*
%TD*%
%TO.C,D6*%
X38370000Y12980000D03*
X35070000Y12980000D03*
%TD*%
%TO.C,D7*%
X38370000Y30660000D03*
X35070000Y30660000D03*
%TD*%
%TO.C,D8*%
X38370000Y48340000D03*
X35070000Y48340000D03*
%TD*%
%TO.C,D9*%
X57090000Y12300000D03*
X53790000Y12300000D03*
%TD*%
%TO.C,D10*%
X57090000Y29980000D03*
X53790000Y29980000D03*
%TD*%
%TO.C,D11*%
X57090000Y47660000D03*
X53790000Y47660000D03*
%TD*%
%TO.C,D12*%
X57090000Y65340000D03*
X53790000Y65340000D03*
%TD*%
%TO.C,D13*%
X75810000Y19300000D03*
X72510000Y19300000D03*
%TD*%
%TO.C,D14*%
X75810000Y36980000D03*
X72510000Y36980000D03*
%TD*%
%TO.C,D15*%
X75810000Y54660000D03*
X72510000Y54660000D03*
%TD*%
%TO.C,D16*%
X75810000Y72340000D03*
X72510000Y72340000D03*
%TD*%
%TO.C,D17*%
X94530000Y6300000D03*
X91230000Y6300000D03*
%TD*%
%TO.C,D18*%
X94530000Y23980000D03*
X91230000Y23980000D03*
%TD*%
%TO.C,D19*%
X94530000Y41660000D03*
X91230000Y41660000D03*
%TD*%
%TO.C,D20*%
X94530000Y59340000D03*
X91230000Y59340000D03*
%TD*%
%TO.C,D21*%
X113250000Y3800000D03*
X109950000Y3800000D03*
%TD*%
%TO.C,D22*%
X113250000Y21480000D03*
X109950000Y21480000D03*
%TD*%
%TO.C,D23*%
X113250000Y39160000D03*
X109950000Y39160000D03*
%TD*%
%TO.C,D24*%
X113250000Y56840000D03*
X109950000Y56840000D03*
%TD*%
%TO.C,D25*%
X75810000Y-13880000D03*
X72510000Y-13880000D03*
%TD*%
%TO.C,D26*%
X94530000Y-13880000D03*
X91230000Y-13880000D03*
%TD*%
%TO.C,D27*%
X113250000Y-13880000D03*
X109950000Y-13880000D03*
%TD*%
D11*
%TO.C,D28*%
X132621293Y-17845633D03*
X129520307Y-16716967D03*
%TD*%
%TO.C,D29*%
X138668193Y-1231933D03*
X135567207Y-103267D03*
%TD*%
D12*
%TO.C,D30*%
X149467973Y-28197500D03*
X146940027Y-26076300D03*
%TD*%
%TO.C,D31*%
X160832373Y-14653900D03*
X158304427Y-12532700D03*
%TD*%
D13*
%TO.C,D32*%
X161758100Y-43686942D03*
X160108100Y-40829058D03*
%TD*%
%TO.C,D33*%
X177069400Y-34846942D03*
X175419400Y-31989058D03*
%TD*%
M02*
