M48
; DRILL file {KiCad (6.0.8)} date Tue 04 Oct 2022 06:24:01 PM CEST
; FORMAT={-:-/ absolute / inch / decimal}
; #@! TF.CreationDate,2022-10-04T18:24:01+02:00
; #@! TF.GenerationSoftware,Kicad,Pcbnew,(6.0.8)
; #@! TF.FileFunction,Plated,1,2,PTH
FMAT,2
INCH
; #@! TA.AperFunction,Plated,PTH,ViaDrill
T1C0.0157
; #@! TA.AperFunction,Plated,PTH,ComponentDrill
T2C0.0354
; #@! TA.AperFunction,Plated,PTH,ComponentDrill
T3C0.0430
; #@! TA.AperFunction,Plated,PTH,ComponentDrill
T4C0.0500
; #@! TA.AperFunction,Plated,PTH,ComponentDrill
T5C0.0512
%
G90
G05
T1
X1.0574Y-0.2234
X1.4003Y0.5613
X1.4262Y1.2201
X1.4266Y1.9139
X2.1614Y1.1831
X2.1616Y0.4956
X2.1736Y1.8367
X2.6177Y2.6859
X3.7192Y0.1731
X4.0339Y2.2378
X4.3722Y0.8546
X4.677Y1.3293
X5.1164Y-0.6038
X5.3884Y1.6017
X5.8112Y-1.0964
X6.259Y-0.4477
T3
X4.8811Y1.8043
X4.8811Y1.7043
X4.8811Y1.6043
X4.8811Y1.5043
X4.8811Y1.4043
X4.8811Y1.3043
X4.8811Y1.2043
X4.8811Y1.1043
X4.8811Y1.0043
X4.8811Y0.9043
X4.8811Y0.8043
X4.8811Y0.7043
X4.9795Y1.8043
X4.9795Y1.7043
X4.9795Y1.6043
X4.9795Y1.5043
X4.9795Y1.4043
X4.9795Y1.3043
X4.9795Y1.2043
X4.9795Y1.1043
X4.9795Y1.0043
X4.9795Y0.9043
X4.9795Y0.8043
X4.9795Y0.7043
X5.4811Y1.8043
X5.4811Y1.7043
X5.4811Y1.6043
X5.4811Y1.5043
X5.4811Y1.4043
X5.4811Y1.3043
X5.4811Y1.2043
X5.4811Y1.1043
X5.4811Y1.0043
X5.4811Y0.9043
X5.4811Y0.8043
X5.4811Y0.7043
X5.5795Y1.8043
X5.5795Y1.7043
X5.5795Y1.6043
X5.5795Y1.5043
X5.5795Y1.4043
X5.5795Y1.3043
X5.5795Y1.2043
X5.5795Y1.1043
X5.5795Y1.0043
X5.5795Y0.9043
X5.5795Y0.8043
X5.5795Y0.7043
T4
X0.5118Y2.2378
X0.5118Y1.5417
X0.5118Y0.8457
X0.5118Y0.1496
X0.7087Y2.3205
X0.7087Y2.3205
X0.7087Y1.6244
X0.7087Y1.6244
X0.7087Y0.9283
X0.7087Y0.9283
X0.7087Y0.2323
X0.7087Y0.2323
X0.9055Y2.2378
X0.9055Y1.5417
X0.9055Y0.8457
X0.9055Y0.1496
X1.2488Y2.2378
X1.2488Y1.5417
X1.2488Y0.8457
X1.2488Y0.1496
X1.4457Y2.3205
X1.4457Y2.3205
X1.4457Y1.6244
X1.4457Y1.6244
X1.4457Y0.9283
X1.4457Y0.9283
X1.4457Y0.2323
X1.4457Y0.2323
X1.6425Y2.2378
X1.6425Y1.5417
X1.6425Y0.8457
X1.6425Y0.1496
X1.9858Y2.9071
X1.9858Y2.211
X1.9858Y1.515
X1.9858Y0.8189
X2.1827Y2.9898
X2.1827Y2.9898
X2.1827Y2.2937
X2.1827Y2.2937
X2.1827Y1.5976
X2.1827Y1.5976
X2.1827Y0.9016
X2.1827Y0.9016
X2.3795Y2.9071
X2.3795Y2.211
X2.3795Y1.515
X2.3795Y0.8189
X2.7228Y3.1827
X2.7228Y2.4866
X2.7228Y1.7906
X2.7228Y1.0945
X2.7228Y-0.2118
X2.9197Y3.2654
X2.9197Y3.2654
X2.9197Y2.5693
X2.9197Y2.5693
X2.9197Y1.8732
X2.9197Y1.8732
X2.9197Y1.1772
X2.9197Y1.1772
X2.9197Y-0.1291
X2.9197Y-0.1291
X3.1165Y3.1827
X3.1165Y2.4866
X3.1165Y1.7906
X3.1165Y1.0945
X3.1165Y-0.2118
X3.4598Y2.6709
X3.4598Y1.9748
X3.4598Y1.2787
X3.4598Y0.5827
X3.4598Y-0.2118
X3.6567Y2.7535
X3.6567Y2.7535
X3.6567Y2.0575
X3.6567Y2.0575
X3.6567Y1.3614
X3.6567Y1.3614
X3.6567Y0.6654
X3.6567Y0.6654
X3.6567Y-0.1291
X3.6567Y-0.1291
X3.8535Y2.6709
X3.8535Y1.9748
X3.8535Y1.2787
X3.8535Y0.5827
X3.8535Y-0.2118
X4.1969Y2.5724
X4.1969Y1.8764
X4.1969Y1.1803
X4.1969Y0.4843
X4.1969Y-0.2118
X4.3937Y2.6551
X4.3937Y2.6551
X4.3937Y1.9591
X4.3937Y1.9591
X4.3937Y1.263
X4.3937Y1.263
X4.3937Y0.5669
X4.3937Y0.5669
X4.3937Y-0.1291
X4.3937Y-0.1291
X4.5906Y2.5724
X4.5906Y1.8764
X4.5906Y1.1803
X4.5906Y0.4843
X4.5906Y-0.2118
X5.0897Y-0.2986
X5.303Y-0.2882
X5.303Y-0.2882
X5.3278Y0.3555
X5.4597Y-0.4332
X5.5411Y0.3659
X5.5411Y0.3659
X5.6978Y0.2209
X5.8991Y-0.6855
X6.1031Y-0.7487
X6.1031Y-0.7487
X6.2007Y-0.9386
X6.3465Y-0.1523
X6.5273Y-1.3259
X6.5505Y-0.2155
X6.5505Y-0.2155
X6.6481Y-0.4053
X6.6974Y-1.455
X6.6974Y-1.455
X6.7242Y-1.6669
X7.1301Y-0.9779
X7.3002Y-1.107
X7.3002Y-1.107
X7.327Y-1.3188
T5
X2.0547Y0.0
X2.3106Y0.0
T2
G00X1.4898Y2.9913
M15
G01X1.4898Y2.9677
M16
G05
G00X1.4898Y2.8732
M15
G01X1.4898Y2.8496
M16
G05
G00X1.4898Y2.7157
M15
G01X1.4898Y2.6921
M16
G05
G00X1.5685Y2.6724
M15
G01X1.5685Y2.6488
M16
G05
G00X1.6709Y2.6724
M15
G01X1.6709Y2.6488
M16
G05
G00X1.7496Y2.9913
M15
G01X1.7496Y2.9677
M16
G05
G00X1.7496Y2.8732
M15
G01X1.7496Y2.8496
M16
G05
G00X1.7496Y2.7157
M15
G01X1.7496Y2.6921
M16
G05
G00X6.0232Y0.5475
M15
G01X6.0232Y0.5239
M16
G05
G00X6.0232Y0.4294
M15
G01X6.0232Y0.4058
M16
G05
G00X6.0232Y0.2719
M15
G01X6.0232Y0.2483
M16
G05
G00X6.1019Y0.2286
M15
G01X6.1019Y0.205
M16
G05
G00X6.2043Y0.2286
M15
G01X6.2043Y0.205
M16
G05
G00X6.2831Y0.5475
M15
G01X6.2831Y0.5239
M16
G05
G00X6.2831Y0.4294
M15
G01X6.2831Y0.4058
M16
G05
G00X6.2831Y0.2719
M15
G01X6.2831Y0.2483
M16
G05
T0
M30
