M48
; DRILL file {KiCad (6.0.8)} date Tue 04 Oct 2022 06:24:01 PM CEST
; FORMAT={-:-/ absolute / inch / decimal}
; #@! TF.CreationDate,2022-10-04T18:24:01+02:00
; #@! TF.GenerationSoftware,Kicad,Pcbnew,(6.0.8)
; #@! TF.FileFunction,NonPlated,1,2,NPTH
FMAT,2
INCH
; #@! TA.AperFunction,NonPlated,NPTH,ComponentDrill
T1C0.0472
; #@! TA.AperFunction,NonPlated,NPTH,ComponentDrill
T2C0.0670
; #@! TA.AperFunction,NonPlated,NPTH,ComponentDrill
T3C0.1350
%
G90
G05
T1
X1.5803Y3.0425
X1.5803Y2.7669
X1.6591Y3.0425
X1.6591Y2.7669
X6.1138Y0.5987
X6.1138Y0.3231
X6.1925Y0.5987
X6.1925Y0.3231
T2
X0.4921Y2.0882
X0.4921Y1.3921
X0.4921Y0.6961
X0.4921Y0.0
X0.9252Y2.0882
X0.9252Y1.3921
X0.9252Y0.6961
X0.9252Y0.0
X1.2291Y2.0882
X1.2291Y1.3921
X1.2291Y0.6961
X1.2291Y0.0
X1.6622Y2.0882
X1.6622Y1.3921
X1.6622Y0.6961
X1.6622Y0.0
X1.9661Y2.7575
X1.9661Y2.0614
X1.9661Y1.3654
X1.9661Y0.6693
X2.3992Y2.7575
X2.3992Y2.0614
X2.3992Y1.3654
X2.3992Y0.6693
X2.7031Y3.0331
X2.7031Y2.337
X2.7031Y1.6409
X2.7031Y0.9449
X2.7031Y-0.3614
X3.1362Y3.0331
X3.1362Y2.337
X3.1362Y1.6409
X3.1362Y0.9449
X3.1362Y-0.3614
X3.4402Y2.5213
X3.4402Y1.8252
X3.4402Y1.1291
X3.4402Y0.4331
X3.4402Y-0.3614
X3.8732Y2.5213
X3.8732Y1.8252
X3.8732Y1.1291
X3.8732Y0.4331
X3.8732Y-0.3614
X4.1772Y2.4228
X4.1772Y1.7268
X4.1772Y1.0307
X4.1772Y0.3346
X4.1772Y-0.3614
X4.6102Y2.4228
X4.6102Y1.7268
X4.6102Y1.0307
X4.6102Y0.3346
X4.6102Y-0.3614
X5.0201Y-0.4324
X5.2581Y0.2217
X5.427Y-0.5805
X5.6651Y0.0735
X5.7879Y-0.7874
X6.1196Y-1.0658
X6.2353Y-0.2542
X6.3879Y-1.3837
X6.567Y-0.5326
X6.6045Y-1.7587
X6.9907Y-1.0356
X7.2073Y-1.4107
T3
X0.7087Y2.0882
X0.7087Y1.3921
X0.7087Y0.6961
X0.7087Y0.0
X1.4457Y2.0882
X1.4457Y1.3921
X1.4457Y0.6961
X1.4457Y0.0
X2.1827Y2.7575
X2.1827Y2.0614
X2.1827Y1.3654
X2.1827Y0.6693
X2.9197Y3.0331
X2.9197Y2.337
X2.9197Y1.6409
X2.9197Y0.9449
X2.9197Y-0.3614
X3.6567Y2.5213
X3.6567Y1.8252
X3.6567Y1.1291
X3.6567Y0.4331
X3.6567Y-0.3614
X4.3937Y2.4228
X4.3937Y1.7268
X4.3937Y1.0307
X4.3937Y0.3346
X4.3937Y-0.3614
X5.2236Y-0.5065
X5.4616Y0.1476
X5.9537Y-0.9266
X6.4012Y-0.3934
X6.4962Y-1.5712
X7.099Y-1.2231
T0
M30
