%TF.GenerationSoftware,KiCad,Pcbnew,(6.0.8)*%
%TF.CreationDate,2022-10-04T18:24:03+02:00*%
%TF.ProjectId,board,626f6172-642e-46b6-9963-61645f706362,v1.0.0*%
%TF.SameCoordinates,Original*%
%TF.FileFunction,Soldermask,Top*%
%TF.FilePolarity,Negative*%
%FSLAX46Y46*%
G04 Gerber Fmt 4.6, Leading zero omitted, Abs format (unit mm)*
G04 Created by KiCad (PCBNEW (6.0.8)) date 2022-10-04 18:24:03*
%MOMM*%
%LPD*%
G01*
G04 APERTURE LIST*
G04 Aperture macros list*
%AMRoundRect*
0 Rectangle with rounded corners*
0 $1 Rounding radius*
0 $2 $3 $4 $5 $6 $7 $8 $9 X,Y pos of 4 corners*
0 Add a 4 corners polygon primitive as box body*
4,1,4,$2,$3,$4,$5,$6,$7,$8,$9,$2,$3,0*
0 Add four circle primitives for the rounded corners*
1,1,$1+$1,$2,$3*
1,1,$1+$1,$4,$5*
1,1,$1+$1,$6,$7*
1,1,$1+$1,$8,$9*
0 Add four rect primitives between the rounded corners*
20,1,$1+$1,$2,$3,$4,$5,0*
20,1,$1+$1,$4,$5,$6,$7,0*
20,1,$1+$1,$6,$7,$8,$9,0*
20,1,$1+$1,$8,$9,$2,$3,0*%
G04 Aperture macros list end*
%ADD10C,3.529000*%
%ADD11C,1.801800*%
%ADD12C,2.132000*%
%ADD13RoundRect,0.050000X-0.450000X-0.600000X0.450000X-0.600000X0.450000X0.600000X-0.450000X0.600000X0*%
%ADD14RoundRect,0.050000X-0.628074X-0.409907X0.217650X-0.717725X0.628074X0.409907X-0.217650X0.717725X0*%
%ADD15RoundRect,0.050000X-0.730393X-0.170372X-0.040953X-0.748881X0.730393X0.170372X0.040953X0.748881X0*%
%ADD16RoundRect,0.050000X-0.744615X0.089711X-0.294615X-0.689711X0.744615X-0.089711X0.294615X0.689711X0*%
%ADD17RoundRect,0.050000X-0.876300X0.876300X-0.876300X-0.876300X0.876300X-0.876300X0.876300X0.876300X0*%
%ADD18C,1.852600*%
%ADD19C,1.300000*%
%ADD20O,1.700000X2.300000*%
%ADD21C,2.100000*%
G04 APERTURE END LIST*
D10*
%TO.C,S1*%
X18000000Y0D03*
D11*
X23500000Y0D03*
X12500000Y0D03*
D12*
X23000000Y3800000D03*
X18000000Y5900000D03*
X13000000Y3800000D03*
X18000000Y5900000D03*
%TD*%
D13*
%TO.C,D1*%
X16350000Y-4700000D03*
X19650000Y-4700000D03*
%TD*%
D10*
%TO.C,S2*%
X18000000Y17680000D03*
D11*
X23500000Y17680000D03*
X12500000Y17680000D03*
D12*
X23000000Y21480000D03*
X18000000Y23580000D03*
X13000000Y21480000D03*
X18000000Y23580000D03*
%TD*%
D13*
%TO.C,D2*%
X16350000Y12980000D03*
X19650000Y12980000D03*
%TD*%
D10*
%TO.C,S3*%
X18000000Y35360000D03*
D11*
X23500000Y35360000D03*
X12500000Y35360000D03*
D12*
X23000000Y39160000D03*
X18000000Y41260000D03*
X13000000Y39160000D03*
X18000000Y41260000D03*
%TD*%
D13*
%TO.C,D3*%
X16350000Y30660000D03*
X19650000Y30660000D03*
%TD*%
D10*
%TO.C,S4*%
X18000000Y53040000D03*
D11*
X23500000Y53040000D03*
X12500000Y53040000D03*
D12*
X23000000Y56840000D03*
X18000000Y58940000D03*
X13000000Y56840000D03*
X18000000Y58940000D03*
%TD*%
D13*
%TO.C,D4*%
X16350000Y48340000D03*
X19650000Y48340000D03*
%TD*%
D10*
%TO.C,S5*%
X36720000Y0D03*
D11*
X42220000Y0D03*
X31220000Y0D03*
D12*
X41720000Y3800000D03*
X36720000Y5900000D03*
X31720000Y3800000D03*
X36720000Y5900000D03*
%TD*%
D13*
%TO.C,D5*%
X35070000Y-4700000D03*
X38370000Y-4700000D03*
%TD*%
D10*
%TO.C,S6*%
X36720000Y17680000D03*
D11*
X42220000Y17680000D03*
X31220000Y17680000D03*
D12*
X41720000Y21480000D03*
X36720000Y23580000D03*
X31720000Y21480000D03*
X36720000Y23580000D03*
%TD*%
D13*
%TO.C,D6*%
X35070000Y12980000D03*
X38370000Y12980000D03*
%TD*%
D10*
%TO.C,S7*%
X36720000Y35360000D03*
D11*
X42220000Y35360000D03*
X31220000Y35360000D03*
D12*
X41720000Y39160000D03*
X36720000Y41260000D03*
X31720000Y39160000D03*
X36720000Y41260000D03*
%TD*%
D13*
%TO.C,D7*%
X35070000Y30660000D03*
X38370000Y30660000D03*
%TD*%
D10*
%TO.C,S8*%
X36720000Y53040000D03*
D11*
X42220000Y53040000D03*
X31220000Y53040000D03*
D12*
X41720000Y56840000D03*
X36720000Y58940000D03*
X31720000Y56840000D03*
X36720000Y58940000D03*
%TD*%
D13*
%TO.C,D8*%
X35070000Y48340000D03*
X38370000Y48340000D03*
%TD*%
D10*
%TO.C,S9*%
X55440000Y17000000D03*
D11*
X60940000Y17000000D03*
X49940000Y17000000D03*
D12*
X60440000Y20800000D03*
X55440000Y22900000D03*
X50440000Y20800000D03*
X55440000Y22900000D03*
%TD*%
D13*
%TO.C,D9*%
X53790000Y12300000D03*
X57090000Y12300000D03*
%TD*%
D10*
%TO.C,S10*%
X55440000Y34680000D03*
D11*
X60940000Y34680000D03*
X49940000Y34680000D03*
D12*
X60440000Y38480000D03*
X55440000Y40580000D03*
X50440000Y38480000D03*
X55440000Y40580000D03*
%TD*%
D13*
%TO.C,D10*%
X53790000Y29980000D03*
X57090000Y29980000D03*
%TD*%
D10*
%TO.C,S11*%
X55440000Y52360000D03*
D11*
X60940000Y52360000D03*
X49940000Y52360000D03*
D12*
X60440000Y56160000D03*
X55440000Y58260000D03*
X50440000Y56160000D03*
X55440000Y58260000D03*
%TD*%
D13*
%TO.C,D11*%
X53790000Y47660000D03*
X57090000Y47660000D03*
%TD*%
D10*
%TO.C,S12*%
X55440000Y70040000D03*
D11*
X60940000Y70040000D03*
X49940000Y70040000D03*
D12*
X60440000Y73840000D03*
X55440000Y75940000D03*
X50440000Y73840000D03*
X55440000Y75940000D03*
%TD*%
D13*
%TO.C,D12*%
X53790000Y65340000D03*
X57090000Y65340000D03*
%TD*%
D10*
%TO.C,S13*%
X74160000Y24000000D03*
D11*
X79660000Y24000000D03*
X68660000Y24000000D03*
D12*
X79160000Y27800000D03*
X74160000Y29900000D03*
X69160000Y27800000D03*
X74160000Y29900000D03*
%TD*%
D13*
%TO.C,D13*%
X72510000Y19300000D03*
X75810000Y19300000D03*
%TD*%
D10*
%TO.C,S14*%
X74160000Y41680000D03*
D11*
X79660000Y41680000D03*
X68660000Y41680000D03*
D12*
X79160000Y45480000D03*
X74160000Y47580000D03*
X69160000Y45480000D03*
X74160000Y47580000D03*
%TD*%
D13*
%TO.C,D14*%
X72510000Y36980000D03*
X75810000Y36980000D03*
%TD*%
D10*
%TO.C,S15*%
X74160000Y59360000D03*
D11*
X79660000Y59360000D03*
X68660000Y59360000D03*
D12*
X79160000Y63160000D03*
X74160000Y65260000D03*
X69160000Y63160000D03*
X74160000Y65260000D03*
%TD*%
D13*
%TO.C,D15*%
X72510000Y54660000D03*
X75810000Y54660000D03*
%TD*%
D10*
%TO.C,S16*%
X74160000Y77040000D03*
D11*
X79660000Y77040000D03*
X68660000Y77040000D03*
D12*
X79160000Y80840000D03*
X74160000Y82940000D03*
X69160000Y80840000D03*
X74160000Y82940000D03*
%TD*%
D13*
%TO.C,D16*%
X72510000Y72340000D03*
X75810000Y72340000D03*
%TD*%
D10*
%TO.C,S17*%
X92880000Y11000000D03*
D11*
X98380000Y11000000D03*
X87380000Y11000000D03*
D12*
X97880000Y14800000D03*
X92880000Y16900000D03*
X87880000Y14800000D03*
X92880000Y16900000D03*
%TD*%
D13*
%TO.C,D17*%
X91230000Y6300000D03*
X94530000Y6300000D03*
%TD*%
D10*
%TO.C,S18*%
X92880000Y28680000D03*
D11*
X98380000Y28680000D03*
X87380000Y28680000D03*
D12*
X97880000Y32480000D03*
X92880000Y34580000D03*
X87880000Y32480000D03*
X92880000Y34580000D03*
%TD*%
D13*
%TO.C,D18*%
X91230000Y23980000D03*
X94530000Y23980000D03*
%TD*%
D10*
%TO.C,S19*%
X92880000Y46360000D03*
D11*
X98380000Y46360000D03*
X87380000Y46360000D03*
D12*
X97880000Y50160000D03*
X92880000Y52260000D03*
X87880000Y50160000D03*
X92880000Y52260000D03*
%TD*%
D13*
%TO.C,D19*%
X91230000Y41660000D03*
X94530000Y41660000D03*
%TD*%
D10*
%TO.C,S20*%
X92880000Y64040000D03*
D11*
X98380000Y64040000D03*
X87380000Y64040000D03*
D12*
X97880000Y67840000D03*
X92880000Y69940000D03*
X87880000Y67840000D03*
X92880000Y69940000D03*
%TD*%
D13*
%TO.C,D20*%
X91230000Y59340000D03*
X94530000Y59340000D03*
%TD*%
D10*
%TO.C,S21*%
X111600000Y8500000D03*
D11*
X117100000Y8500000D03*
X106100000Y8500000D03*
D12*
X116600000Y12300000D03*
X111600000Y14400000D03*
X106600000Y12300000D03*
X111600000Y14400000D03*
%TD*%
D13*
%TO.C,D21*%
X109950000Y3800000D03*
X113250000Y3800000D03*
%TD*%
D10*
%TO.C,S22*%
X111600000Y26180000D03*
D11*
X117100000Y26180000D03*
X106100000Y26180000D03*
D12*
X116600000Y29980000D03*
X111600000Y32080000D03*
X106600000Y29980000D03*
X111600000Y32080000D03*
%TD*%
D13*
%TO.C,D22*%
X109950000Y21480000D03*
X113250000Y21480000D03*
%TD*%
D10*
%TO.C,S23*%
X111600000Y43860000D03*
D11*
X117100000Y43860000D03*
X106100000Y43860000D03*
D12*
X116600000Y47660000D03*
X111600000Y49760000D03*
X106600000Y47660000D03*
X111600000Y49760000D03*
%TD*%
D13*
%TO.C,D23*%
X109950000Y39160000D03*
X113250000Y39160000D03*
%TD*%
D10*
%TO.C,S24*%
X111600000Y61540000D03*
D11*
X117100000Y61540000D03*
X106100000Y61540000D03*
D12*
X116600000Y65340000D03*
X111600000Y67440000D03*
X106600000Y65340000D03*
X111600000Y67440000D03*
%TD*%
D13*
%TO.C,D24*%
X109950000Y56840000D03*
X113250000Y56840000D03*
%TD*%
D10*
%TO.C,S25*%
X74160000Y-9180000D03*
D11*
X79660000Y-9180000D03*
X68660000Y-9180000D03*
D12*
X79160000Y-5380000D03*
X74160000Y-3280000D03*
X69160000Y-5380000D03*
X74160000Y-3280000D03*
%TD*%
D13*
%TO.C,D25*%
X72510000Y-13880000D03*
X75810000Y-13880000D03*
%TD*%
D10*
%TO.C,S26*%
X92880000Y-9180000D03*
D11*
X98380000Y-9180000D03*
X87380000Y-9180000D03*
D12*
X97880000Y-5380000D03*
X92880000Y-3280000D03*
X87880000Y-5380000D03*
X92880000Y-3280000D03*
%TD*%
D13*
%TO.C,D26*%
X91230000Y-13880000D03*
X94530000Y-13880000D03*
%TD*%
D10*
%TO.C,S27*%
X111600000Y-9180000D03*
D11*
X117100000Y-9180000D03*
X106100000Y-9180000D03*
D12*
X116600000Y-5380000D03*
X111600000Y-3280000D03*
X106600000Y-5380000D03*
X111600000Y-3280000D03*
%TD*%
D13*
%TO.C,D27*%
X109950000Y-13880000D03*
X113250000Y-13880000D03*
%TD*%
D10*
%TO.C,S28*%
X132678200Y-12864800D03*
D11*
X137846509Y-14745911D03*
X127509891Y-10983689D03*
D12*
X138676340Y-11004069D03*
X134696119Y-7320614D03*
X129279413Y-7583867D03*
X134696119Y-7320614D03*
%TD*%
D14*
%TO.C,D28*%
X129520307Y-16716967D03*
X132621293Y-17845633D03*
%TD*%
D10*
%TO.C,S29*%
X138725200Y3749000D03*
D11*
X143893509Y1867889D03*
X133556891Y5630111D03*
D12*
X144723340Y5609731D03*
X140743119Y9293186D03*
X135326413Y9029933D03*
X140743119Y9293186D03*
%TD*%
D14*
%TO.C,D29*%
X135567207Y-103267D03*
X138668193Y-1231933D03*
%TD*%
D10*
%TO.C,S30*%
X151225100Y-23536500D03*
D11*
X155438344Y-27071832D03*
X147011856Y-20001168D03*
D12*
X157497915Y-23839469D03*
X155017547Y-19016838D03*
X149837471Y-17411593D03*
X155017547Y-19016838D03*
%TD*%
D15*
%TO.C,D30*%
X146940027Y-26076300D03*
X149467973Y-28197500D03*
%TD*%
D10*
%TO.C,S31*%
X162589500Y-9992800D03*
D11*
X166802744Y-13528132D03*
X158376256Y-6457468D03*
D12*
X168862315Y-10295769D03*
X166381947Y-5473138D03*
X161201871Y-3867893D03*
X166381947Y-5473138D03*
%TD*%
D15*
%TO.C,D31*%
X158304427Y-12532700D03*
X160832373Y-14653900D03*
%TD*%
D10*
%TO.C,S32*%
X165003400Y-39908000D03*
D11*
X167753400Y-44671140D03*
X162253400Y-35144860D03*
D12*
X170794297Y-42338127D03*
X170112950Y-36958000D03*
X165794297Y-33677873D03*
X170112950Y-36958000D03*
%TD*%
D16*
%TO.C,D32*%
X160108100Y-40829058D03*
X161758100Y-43686942D03*
%TD*%
D10*
%TO.C,S33*%
X180314700Y-31068000D03*
D11*
X183064700Y-35831140D03*
X177564700Y-26304860D03*
D12*
X186105597Y-33498127D03*
X185424250Y-28118000D03*
X181105597Y-24837873D03*
X185424250Y-28118000D03*
%TD*%
D16*
%TO.C,D33*%
X175419400Y-31989058D03*
X177069400Y-34846942D03*
%TD*%
D17*
%TO.C,MCU1*%
X139220000Y45830000D03*
D18*
X139220000Y43290000D03*
X139220000Y40750000D03*
X139220000Y38210000D03*
X139220000Y35670000D03*
X139220000Y33130000D03*
X139220000Y30590000D03*
X139220000Y28050000D03*
X139220000Y25510000D03*
X139220000Y22970000D03*
X139220000Y20430000D03*
X139220000Y17890000D03*
X123980000Y45830000D03*
X123980000Y43290000D03*
X123980000Y40750000D03*
X123980000Y38210000D03*
X123980000Y35670000D03*
X123980000Y33130000D03*
X123980000Y30590000D03*
X123980000Y28050000D03*
X123980000Y25510000D03*
X123980000Y22970000D03*
X123980000Y20430000D03*
X123980000Y17890000D03*
%TD*%
D17*
%TO.C,MCU2*%
X126480000Y45830000D03*
D18*
X126480000Y43290000D03*
X126480000Y40750000D03*
X126480000Y38210000D03*
X126480000Y35670000D03*
X126480000Y33130000D03*
X126480000Y30590000D03*
X126480000Y28050000D03*
X126480000Y25510000D03*
X126480000Y22970000D03*
X126480000Y20430000D03*
X126480000Y17890000D03*
X141720000Y45830000D03*
X141720000Y43290000D03*
X141720000Y40750000D03*
X141720000Y38210000D03*
X141720000Y35670000D03*
X141720000Y33130000D03*
X141720000Y30590000D03*
X141720000Y28050000D03*
X141720000Y25510000D03*
X141720000Y22970000D03*
X141720000Y20430000D03*
X141720000Y17890000D03*
%TD*%
D19*
%TO.C,TRRS1*%
X157289500Y8207200D03*
X157289500Y15207200D03*
D20*
X154989500Y5507200D03*
X159589500Y6607200D03*
X159589500Y10607200D03*
X159589500Y13607200D03*
%TD*%
D19*
%TO.C,TRRS2*%
X155289500Y8207200D03*
X155289500Y15207200D03*
D20*
X157589500Y5507200D03*
X152989500Y6607200D03*
X152989500Y10607200D03*
X152989500Y13607200D03*
%TD*%
D19*
%TO.C,TRRS3*%
X42140000Y70280000D03*
X42140000Y77280000D03*
D20*
X39840000Y67580000D03*
X44440000Y68680000D03*
X44440000Y72680000D03*
X44440000Y75680000D03*
%TD*%
D19*
%TO.C,TRRS4*%
X40140000Y70280000D03*
X40140000Y77280000D03*
D20*
X42440000Y67580000D03*
X37840000Y68680000D03*
X37840000Y72680000D03*
X37840000Y75680000D03*
%TD*%
D21*
%TO.C,B1*%
X52190000Y0D03*
X58690000Y0D03*
%TD*%
M02*
