0
SECTION
2
HEADER
9
$INSUNITS
70
4
0
ENDSEC
0
SECTION
2
TABLES
0
TABLE
2
LTYPE
0
LTYPE
72
65
70
64
2
CONTINUOUS
3
______
73
0
40
0
0
ENDTAB
0
TABLE
2
LAYER
0
ENDTAB
0
ENDSEC
0
SECTION
2
ENTITIES
0
LINE
8
0
10
9.64
20
61.88
11
35.08
21
61.88
0
LINE
8
0
10
8.64
20
60.88
11
8.64
21
-7.84
0
LINE
8
0
10
9.64
20
-8.84
11
63.8
21
-8.84
0
LINE
8
0
10
120.96
20
50.66
11
120.96
21
69.38
0
LINE
8
0
10
119.96
20
70.38
11
103.24
21
70.38
0
LINE
8
0
10
102.24
20
71.38
11
102.24
21
71.88
0
LINE
8
0
10
101.24
20
72.88
11
84.52
21
72.88
0
LINE
8
0
10
83.52
20
73.88
11
83.52
21
84.88
0
LINE
8
0
10
82.52
20
85.88
11
65.8
21
85.88
0
LINE
8
0
10
64.8
20
84.88
11
64.8
21
79.88
0
LINE
8
0
10
37.08
20
78.88
11
63.8
21
78.88
0
LINE
8
0
10
161.4588213
20
2.4957431
11
175.3759362
21
-9.1821028
0
LINE
8
0
10
175.497532
20
-9.3033852
11
183.2331531
21
-18.4741807
0
LINE
8
0
10
183.3347951
20
-18.6189427
11
192.1504007
21
-33.8880195
0
LINE
8
0
10
191.7843753
20
-35.2540449
11
162.8937678
21
-51.9340449
0
LINE
8
0
10
161.5277424
20
-51.5680195
11
152.8477424
21
-36.5338185
0
LINE
8
0
10
152.8477424
20
-36.5338185
11
152.4372148
21
-36.0934322
0
LINE
8
0
10
152.4372148
20
-36.0934322
11
138.6484148
21
-24.5232552
0
LINE
8
0
10
138.6484148
20
-24.5232552
11
138.1120243
21
-24.2498361
0
LINE
8
0
10
138.1120243
20
-24.2498361
11
121.1975571
21
-18.0934735
0
LINE
8
0
10
121.1975571
20
-18.0934735
11
120.6
21
-18.02
0
LINE
8
0
10
65.8
20
-18.02
11
120.6
21
-18.02
0
LINE
8
0
10
64.8
20
-17.02
11
64.8
21
-9.84
0
LINE
8
0
10
143.6
20
17.7954799
11
143.6
21
48.66
0
LINE
8
0
10
142.6
20
49.66
11
121.96
21
49.66
0
LINE
8
0
10
161.1016089
20
3.2617875
11
161.1016089
21
15.7954799
0
LINE
8
0
10
160.1016089
20
16.7954799
11
144.6
21
16.7954799
0
LINE
8
0
10
36.08
20
77.88
11
36.08
21
62.88
0
ARC
8
0
10
35.08
20
62.88
40
1
50
270
51
0
0
ARC
8
0
10
37.08
20
77.88
40
1
50
90
51
180
0
ARC
8
0
10
63.8
20
79.88
40
1
50
270
51
0
0
ARC
8
0
10
65.8
20
84.88
40
1
50
90
51
180
0
ARC
8
0
10
82.52
20
84.88
40
1
50
0
51
90
0
ARC
8
0
10
84.52
20
73.88
40
1
50
180
51
270
0
ARC
8
0
10
101.24
20
71.88
40
1
50
0
51
90
0
ARC
8
0
10
103.24
20
71.38
40
1
50
180
51
270
0
ARC
8
0
10
119.96
20
69.38
40
1
50
0
51
90
0
ARC
8
0
10
121.96
20
50.66
40
1
50
180
51
270
0
ARC
8
0
10
142.6
20
48.66
40
1
50
0
51
90
0
ARC
8
0
10
144.6
20
17.7954799
40
1
50
180
51
270
0
ARC
8
0
10
160.1016089
20
15.7954799
40
1
50
0
51
90
0
ARC
8
0
10
162.1016089
20
3.2617875
40
1
50
180
51
229.9999988
0
ARC
8
0
10
174.7331486
20
-9.9481472
40
1
50
40.1478329
51
49.9999988
0
ARC
8
0
10
182.4687697
20
-19.1189427
40
1
50
30.0000001
51
40.1478329
0
ARC
8
0
10
191.2843753
20
-34.3880195
40
1
50
300.0000001
51
30.0000001
0
ARC
8
0
10
162.3937678
20
-51.0680195
40
1
50
210.0000001
51
300.0000001
0
ARC
8
0
10
65.8
20
-17.02
40
1
50
180
51
270
0
ARC
8
0
10
63.8
20
-9.84
40
1
50
0
51
90
0
ARC
8
0
10
9.64
20
-7.84
40
1
50
180
51
270
0
ARC
8
0
10
9.64
20
60.88
40
1
50
90
51
180
0
ENDSEC
0
EOF